<svg width="32" height="32" viewBox="0 0 32 32" fill="none" xmlns="http://www.w3.org/2000/svg">
<path d="M5.33301 8C5.33301 10.2093 10.109 12 15.9997 12C21.8903 12 26.6663 10.2093 26.6663 8C26.6663 5.79067 21.8903 4 15.9997 4C10.109 4 5.33301 5.79067 5.33301 8Z" stroke="#121212" stroke-width="2" stroke-linecap="round" stroke-linejoin="round"/>
<path d="M5.33301 8V16C5.33301 18.2093 10.109 20 15.9997 20C17.141 20 18.2397 19.9333 19.2717 19.808M26.6663 16V8" stroke="#121212" stroke-width="2" stroke-linecap="round" stroke-linejoin="round"/>
<path d="M5.33301 16V24C5.33301 26.2093 10.109 28 15.9997 28C16.2277 28 16.4543 27.9973 16.6797 27.992M25.333 29.3333V21.3333M25.333 21.3333L29.333 25.3333M25.333 21.3333L21.333 25.3333" stroke="#121212" stroke-width="2" stroke-linecap="round" stroke-linejoin="round"/>
</svg>
