<svg width="318" height="982" viewBox="0 0 318 982" fill="none" xmlns="http://www.w3.org/2000/svg">
<g clip-path="url(#clip0_1130_4289)">
<rect width="318" height="982" fill="url(#paint0_linear_1130_4289)"/>
<g opacity="0.5">
<path d="M320.724 491L201.842 491L65.0001 -211L455 -211L320.724 491Z" fill="url(#paint1_linear_1130_4289)"/>
<path d="M378.724 491L259.842 491L123 -211L513 -211L378.724 491Z" fill="url(#paint2_linear_1130_4289)"/>
<path d="M110.724 491L-8.1579 491L-145 -211L245 -211L110.724 491Z" fill="url(#paint3_linear_1130_4289)"/>
<path d="M38.7237 491L-80.1579 491L-217 -211L173 -211L38.7237 491Z" fill="url(#paint4_linear_1130_4289)"/>
</g>
<g clip-path="url(#clip1_1130_4289)">
<path opacity="0.3" d="M350.288 875.171C351.032 873.931 351.775 872.692 352.519 871.328C357.724 857.075 355.865 848.275 353.51 842.946C344.216 822.124 318.812 810.969 262.923 801.921C258.833 801.302 233.305 793.245 223.267 768.829C216.7 752.965 220.417 737.1 223.02 727.557C231.942 693.845 251.894 690.994 262.551 663.231C271.35 640.302 270.978 607.706 253.753 583.413C232.19 552.924 191.295 545.487 161.182 551.56C131.689 557.509 111.365 577.464 101.204 589.61C95.3792 576.596 85.3415 558.005 68.2401 539.91C26.726 495.663 -36.8463 474.717 -94.5944 482.649C-159.158 491.573 -199.185 534.208 -219.261 555.65C-331.907 675.997 -303.404 860.545 -297.332 895.497H520.31C477.433 889.424 410.143 882.607 350.288 875.171Z" fill="#093646"/>
<g clip-path="url(#clip2_1130_4289)">
<path d="M216.89 645.72H139C138.47 645.72 137.946 645.825 137.457 646.029C136.969 646.233 136.526 646.532 136.154 646.909C135.781 647.286 135.488 647.733 135.29 648.224C135.092 648.715 134.993 649.241 135 649.77V685.25C134.997 686.317 135.416 687.342 136.165 688.103C136.914 688.863 137.933 689.297 139 689.31H171.68L178.62 698.21L184.4 689.31H216.9C217.975 689.307 219.005 688.878 219.764 688.117C220.523 687.356 220.95 686.325 220.95 685.25V649.77C220.95 649.237 220.845 648.71 220.641 648.218C220.436 647.726 220.137 647.279 219.76 646.903C219.383 646.526 218.935 646.228 218.443 646.025C217.95 645.822 217.423 645.719 216.89 645.72Z" fill="white"/>
<path d="M216.89 645.72H217.27C217.649 645.754 218.023 645.838 218.38 645.97C218.964 646.179 219.491 646.522 219.92 646.97C220.523 647.617 220.901 648.441 221 649.32C221.07 653.18 221.06 658.8 221.09 665.92C221.09 669.48 221.09 673.41 221.09 677.67C221.09 679.81 221.09 682.02 221.09 684.32C221.117 684.911 221.09 685.504 221.01 686.09C220.885 686.693 220.633 687.262 220.27 687.76C219.897 688.274 219.413 688.698 218.854 688.999C218.295 689.301 217.675 689.472 217.04 689.5H184.35L184.56 689.39L178.78 698.29L178.59 698.58L178.37 698.31L171.43 689.41L171.63 689.51H140.21C139.64 689.51 139.11 689.51 138.5 689.51C137.911 689.455 137.34 689.281 136.82 689C136.315 688.697 135.877 688.294 135.533 687.816C135.19 687.338 134.947 686.795 134.82 686.22C134.715 685.66 134.678 685.089 134.71 684.52V669.87C134.71 665.61 134.71 661.433 134.71 657.34V649.77C134.715 649.244 134.814 648.722 135 648.23C135.384 647.275 136.092 646.485 137 646C137.463 645.765 137.964 645.616 138.48 645.56C138.973 645.535 139.467 645.535 139.96 645.56H159.24H178.59L206.59 645.64L214.2 645.69L206.59 645.74L178.59 645.82H159.24H140C139.52 645.82 139 645.82 138.57 645.82C137.879 645.899 137.224 646.167 136.676 646.594C136.127 647.021 135.707 647.59 135.46 648.24C135.289 648.677 135.201 649.141 135.2 649.61V651.11C135.2 653.11 135.2 655.133 135.2 657.18V669.87C135.2 674.123 135.2 678.457 135.2 682.87V684.5C135.168 685.032 135.198 685.565 135.29 686.09C135.47 686.852 135.88 687.541 136.465 688.061C137.05 688.582 137.782 688.91 138.56 689C139.07 689 139.66 689 140.21 689H171.79L171.87 689.1C174.26 692.17 176.62 695.19 178.8 698H178.4L184.19 689.1L184.26 689H184.39H217.06C217.629 688.99 218.188 688.853 218.697 688.598C219.205 688.344 219.651 687.979 220 687.53C220.338 687.081 220.571 686.561 220.68 686.01C220.757 685.45 220.784 684.885 220.76 684.32C220.76 682.02 220.76 679.81 220.76 677.67C220.76 673.41 220.76 669.48 220.76 665.92C220.76 658.82 220.76 653.2 220.81 649.34C220.718 648.501 220.369 647.712 219.81 647.08C219.395 646.638 218.886 646.296 218.32 646.08C217.865 645.885 217.383 645.764 216.89 645.72Z" fill="#263238"/>
<path d="M163.35 655.73V657H162.49V655.72L161.06 653.34H162L163 655L164 653.36H164.84L163.35 655.73Z" fill="#263238"/>
<path d="M164.76 655.19C164.744 654.792 164.848 654.397 165.057 654.058C165.267 653.719 165.574 653.45 165.937 653.286C166.301 653.123 166.706 653.071 167.099 653.139C167.492 653.207 167.856 653.391 168.143 653.667C168.431 653.944 168.63 654.3 168.714 654.69C168.797 655.08 168.763 655.486 168.614 655.856C168.465 656.226 168.209 656.543 167.879 656.767C167.548 656.99 167.159 657.11 166.76 657.11C166.501 657.121 166.243 657.079 166.001 656.988C165.758 656.896 165.537 656.756 165.35 656.577C165.163 656.397 165.015 656.182 164.913 655.944C164.812 655.706 164.76 655.449 164.76 655.19ZM167.95 655.19C167.944 654.962 167.871 654.741 167.74 654.554C167.609 654.367 167.426 654.223 167.213 654.14C167.001 654.057 166.769 654.038 166.546 654.086C166.323 654.134 166.119 654.247 165.96 654.41C165.8 654.574 165.693 654.78 165.65 655.005C165.608 655.229 165.633 655.46 165.721 655.671C165.81 655.881 165.959 656.06 166.149 656.187C166.339 656.313 166.562 656.38 166.79 656.38C166.95 656.39 167.11 656.366 167.26 656.31C167.41 656.254 167.546 656.167 167.66 656.055C167.775 655.943 167.864 655.808 167.922 655.659C167.981 655.51 168.007 655.35 168 655.19H167.95Z" fill="#263238"/>
<path d="M169.44 655.41V653.34H170.3V655.34C170.3 656.04 170.6 656.34 171.12 656.34C171.64 656.34 171.95 656.04 171.95 655.34V653.34H172.8V655.41C172.8 655.856 172.623 656.283 172.308 656.598C171.993 656.913 171.565 657.09 171.12 657.09C170.674 657.09 170.247 656.913 169.932 656.598C169.617 656.283 169.44 655.856 169.44 655.41Z" fill="#263238"/>
<path d="M176 657L175.28 656H174.49V657H173.64V653.3H175.24C176.24 653.3 176.85 653.81 176.85 654.64C176.861 654.89 176.794 655.137 176.657 655.347C176.521 655.557 176.323 655.719 176.09 655.81L176.92 657H176ZM175.19 654H174.49V655.3H175.19C175.72 655.3 175.98 655.05 175.98 654.65C175.98 654.25 175.73 654 175.2 654H175.19Z" fill="#263238"/>
<path d="M178.81 655.19C178.808 654.931 178.859 654.673 178.96 654.435C179.061 654.196 179.21 653.98 179.397 653.8C179.584 653.62 179.806 653.481 180.049 653.39C180.292 653.298 180.551 653.258 180.81 653.27C181.098 653.259 181.385 653.313 181.649 653.427C181.914 653.541 182.15 653.713 182.34 653.93L181.79 654.44C181.676 654.301 181.533 654.189 181.37 654.113C181.207 654.037 181.029 653.998 180.85 654C180.534 654 180.232 654.125 180.008 654.348C179.785 654.572 179.66 654.874 179.66 655.19C179.66 655.506 179.785 655.808 180.008 656.031C180.232 656.255 180.534 656.38 180.85 656.38C181.029 656.382 181.207 656.343 181.37 656.267C181.533 656.191 181.676 656.079 181.79 655.94L182.34 656.44C182.079 656.755 181.727 656.983 181.333 657.092C180.938 657.201 180.52 657.186 180.134 657.05C179.748 656.914 179.413 656.662 179.174 656.33C178.936 655.997 178.805 655.599 178.8 655.19H178.81Z" fill="#263238"/>
<path d="M182.61 655.19C182.594 654.792 182.698 654.397 182.907 654.058C183.117 653.719 183.424 653.45 183.788 653.286C184.151 653.123 184.556 653.071 184.949 653.139C185.342 653.207 185.706 653.391 185.993 653.667C186.281 653.944 186.48 654.3 186.564 654.69C186.648 655.08 186.613 655.486 186.464 655.856C186.315 656.226 186.059 656.543 185.729 656.767C185.399 656.99 185.009 657.11 184.61 657.11C184.351 657.121 184.093 657.079 183.851 656.988C183.608 656.896 183.387 656.756 183.2 656.577C183.013 656.397 182.865 656.182 182.763 655.944C182.662 655.706 182.61 655.449 182.61 655.19ZM185.8 655.19C185.794 654.962 185.721 654.741 185.59 654.554C185.459 654.367 185.276 654.223 185.064 654.14C184.851 654.057 184.619 654.038 184.396 654.086C184.173 654.134 183.969 654.247 183.81 654.41C183.65 654.574 183.543 654.78 183.501 655.005C183.458 655.229 183.483 655.46 183.571 655.671C183.66 655.881 183.809 656.06 183.999 656.187C184.189 656.313 184.412 656.38 184.64 656.38C184.796 656.383 184.95 656.354 185.094 656.295C185.238 656.236 185.369 656.148 185.477 656.036C185.586 655.925 185.671 655.792 185.726 655.646C185.782 655.501 185.807 655.346 185.8 655.19Z" fill="#263238"/>
<path d="M187.32 653.34H189C189.259 653.313 189.521 653.341 189.768 653.422C190.016 653.502 190.244 653.634 190.438 653.808C190.631 653.983 190.786 654.196 190.892 654.434C190.998 654.672 191.052 654.93 191.052 655.19C191.052 655.451 190.998 655.708 190.892 655.946C190.786 656.184 190.631 656.397 190.438 656.572C190.244 656.746 190.016 656.878 189.768 656.959C189.521 657.039 189.259 657.067 189 657.04H187.32V653.34ZM188.96 656.34C189.265 656.34 189.557 656.219 189.773 656.003C189.989 655.788 190.11 655.495 190.11 655.19C190.11 654.885 189.989 654.593 189.773 654.377C189.557 654.161 189.265 654.04 188.96 654.04H188.18V656.34H188.96Z" fill="#263238"/>
<path d="M194.57 656.35V657H191.7V653.3H194.5V654H192.55V654.8H194.27V655.47H192.55V656.32L194.57 656.35Z" fill="#263238"/>
<path d="M209.28 660.94H146.59C144.629 660.94 143.04 662.529 143.04 664.49V677.73C143.04 679.691 144.629 681.28 146.59 681.28H209.28C211.24 681.28 212.83 679.691 212.83 677.73V664.49C212.83 662.529 211.24 660.94 209.28 660.94Z" fill="#F5F5F5"/>
<path d="M157.23 672.35C157.232 672.769 157.146 673.183 156.978 673.567C156.81 673.95 156.564 674.294 156.255 674.577C155.946 674.86 155.581 675.074 155.184 675.207C154.787 675.341 154.367 675.389 153.95 675.35C151.36 675.35 149.95 673.49 149.95 670.41C149.95 667.07 151.72 665.36 154.32 665.36C155.098 665.325 155.871 665.498 156.56 665.86L156.27 666.44C155.673 666.114 154.999 665.959 154.32 665.99C152.12 665.99 150.67 667.44 150.67 670.3C150.667 670.695 150.694 671.089 150.75 671.48C150.985 670.851 151.418 670.315 151.985 669.954C152.552 669.593 153.22 669.427 153.89 669.48C155.91 669.42 157.23 670.58 157.23 672.35ZM156.51 672.35C156.51 670.95 155.51 670.03 153.84 670.03C153.505 669.996 153.166 670.03 152.844 670.131C152.522 670.232 152.225 670.398 151.969 670.618C151.714 670.838 151.506 671.107 151.358 671.41C151.21 671.713 151.126 672.043 151.11 672.38C151.11 673.53 152.11 674.69 153.92 674.69C154.247 674.725 154.577 674.691 154.89 674.59C155.203 674.489 155.491 674.323 155.735 674.103C155.979 673.883 156.175 673.615 156.308 673.314C156.442 673.014 156.51 672.689 156.51 672.36V672.35Z" fill="#18A4F5"/>
<path d="M170.3 672.52H168.23V675.25H167.53V672.52H161.92V672L167.26 665.4H168.07L162.82 671.88H167.54V669.48H168.23V671.88H170.3V672.52Z" fill="#18A4F5"/>
<path d="M181.24 672.48C181.24 674.11 180.05 675.32 177.79 675.32C177.151 675.346 176.513 675.243 175.915 675.016C175.317 674.789 174.771 674.443 174.31 674L174.68 673.46C175.088 673.863 175.575 674.178 176.11 674.386C176.645 674.594 177.216 674.691 177.79 674.67C179.56 674.67 180.5 673.82 180.5 672.49C180.5 671.16 179.6 670.3 177.63 670.3H177V669.78L179.91 666.06H174.66V665.4H180.84V665.91L177.84 669.69C180.14 669.75 181.24 670.87 181.24 672.48Z" fill="#18A4F5"/>
<path d="M193.14 665.4V665.91L188.91 675.25H188.12L192.31 666.05H186.78V667.93H186.08V665.4H193.14Z" fill="#18A4F5"/>
<path d="M198.16 670.32C198.16 667.24 199.75 665.32 202.02 665.32C204.29 665.32 205.87 667.23 205.87 670.32C205.87 673.41 204.28 675.32 202.02 675.32C199.76 675.32 198.16 673.4 198.16 670.32ZM205.16 670.32C205.16 667.58 203.88 665.99 202.02 665.99C200.16 665.99 198.88 667.58 198.88 670.32C198.88 673.06 200.16 674.66 202.02 674.66C203.88 674.66 205.16 673.07 205.16 670.32Z" fill="#18A4F5"/>
<path d="M269.28 927.88C282.37 922.32 297.52 911.39 304.28 897.98C289.751 904.004 277.499 914.47 269.28 927.88Z" fill="#949494"/>
<path d="M272.06 907.08C285.15 901.52 300.31 890.59 307.06 877.18C292.534 883.209 280.284 893.674 272.06 907.08Z" fill="#949494"/>
<path d="M275.85 886.84C288.94 881.29 304.1 870.35 310.85 856.95C296.323 862.972 284.072 873.434 275.85 886.84Z" fill="#949494"/>
<path d="M280.6 865.66C292.95 858.33 306.71 845.4 311.84 831.19C298.115 839.177 287.202 851.218 280.6 865.66Z" fill="#949494"/>
<path d="M285.67 849.45C294.67 837.68 303.06 820.17 302.95 804.99C292.949 817.791 286.939 833.255 285.67 849.45Z" fill="#949494"/>
<path d="M283.15 857.16C281.34 841.24 275.15 821.23 264.63 809.29C266.406 826.617 272.802 843.149 283.15 857.16Z" fill="#949494"/>
<path d="M278.92 874.57C275.72 858.16 267.62 837.86 255.68 826.35C258.952 844.22 266.98 860.878 278.92 874.57Z" fill="#949494"/>
<path d="M274.06 895.8C270.86 879.39 262.76 859.09 250.82 847.58C254.092 865.45 262.12 882.107 274.06 895.8Z" fill="#949494"/>
<path d="M270.16 921.87C266.96 905.46 258.86 885.16 246.92 873.65C250.192 891.52 258.22 908.177 270.16 921.87Z" fill="#949494"/>
<path d="M286.28 846.33C286.237 846.409 286.203 846.493 286.18 846.58C286.11 846.77 286.03 847.01 285.93 847.31C285.71 848 285.41 848.95 285.02 850.15C284.24 852.62 283.17 856.21 281.93 860.67C280.69 865.13 279.29 870.46 277.87 876.42C276.45 882.38 275.05 888.95 273.74 895.89C272.43 902.83 271.38 909.49 270.52 915.55C269.66 921.61 269.03 927.09 268.58 931.7C268.13 936.31 267.8 940.04 267.64 942.62C267.56 943.88 267.5 944.87 267.45 945.62C267.45 945.94 267.45 946.19 267.45 946.4C267.443 946.487 267.443 946.574 267.45 946.66C267.481 946.577 267.498 946.489 267.5 946.4C267.5 946.2 267.5 945.94 267.59 945.63C267.66 944.91 267.75 943.92 267.87 942.63C268.09 940.06 268.46 936.33 268.97 931.73C269.48 927.13 270.15 921.67 270.97 915.62C271.79 909.57 272.97 902.93 274.23 895.99C275.49 889.05 276.95 882.48 278.32 876.52C279.69 870.56 281.06 865.23 282.27 860.76C283.48 856.29 284.48 852.69 285.2 850.21C285.55 849 285.82 848.04 286.02 847.34C286.1 847.04 286.17 846.79 286.22 846.59C286.252 846.506 286.272 846.419 286.28 846.33Z" fill="#949494"/>
<path d="M262.9 936.54C268.45 924.92 272.49 908.54 269.76 895.81C263.554 908.428 261.169 922.585 262.9 936.54Z" fill="#E8F6FE"/>
<path d="M253.66 921.49C259.21 909.86 263.25 893.49 260.53 880.76C254.323 893.378 251.936 907.534 253.66 921.49Z" fill="#E8F6FE"/>
<path d="M245.38 906.18C250.93 894.55 254.97 878.18 252.24 865.45C246.041 878.071 243.657 892.225 245.38 906.18Z" fill="#E8F6FE"/>
<path d="M237.22 889.67C241.35 877.37 243.42 860.59 239.22 848.32C234.555 861.617 233.861 875.985 237.22 889.67Z" fill="#E8F6FE"/>
<path d="M231.91 876.15C231.5 863.06 227.65 846.66 219.52 836.99C219.705 850.978 224.015 864.601 231.91 876.15Z" fill="#E8F6FE"/>
<path d="M234.37 882.65C224.74 873.56 210.09 864.54 196.93 863.36C207.23 873.348 220.258 880.061 234.37 882.65Z" fill="#E8F6FE"/>
<path d="M240.86 896.42C230.07 887.87 214.04 879.84 200.17 879.81C211.789 889.254 225.951 895.034 240.86 896.42Z" fill="#E8F6FE"/>
<path d="M249 913C238.2 904.45 222.17 896.42 208.31 896.39C219.929 905.835 234.091 911.616 249 913Z" fill="#E8F6FE"/>
<path d="M260.28 932.15C249.49 923.6 233.46 915.57 219.59 915.54C231.209 924.983 245.371 930.764 260.28 932.15Z" fill="#E8F6FE"/>
<path d="M230.65 873.78C230.65 873.78 230.65 873.85 230.71 873.99L230.93 874.61C231.16 875.19 231.46 875.97 231.84 876.96C232.62 878.96 233.84 881.96 235.37 885.54C238.45 892.74 243.01 902.54 248.68 913.08C251.52 918.33 254.37 923.27 257.04 927.71C259.71 932.15 262.22 936.07 264.39 939.33C266.56 942.59 268.39 945.2 269.63 946.98L271.11 948.98L271.5 949.5C271.59 949.62 271.64 949.68 271.65 949.67C271.66 949.66 271.65 949.6 271.54 949.48L271.19 948.92L269.79 946.83C268.56 945.02 266.79 942.38 264.68 939.1C262.57 935.82 260.09 931.87 257.42 927.43C254.75 922.99 251.95 918.06 249.11 912.81C243.45 902.3 238.84 892.52 235.68 885.36C234.1 881.78 232.85 878.87 232.01 876.85L231.01 874.53L230.74 873.94C230.69 873.84 230.66 873.77 230.65 873.78Z" fill="#949494"/>
<path d="M236.46 937.95H291.62V948.58H285.95L281.17 978.9H247.08L242.17 948.58H236.46V937.95Z" fill="#18A4F5"/>
<path d="M236.45 948.36C236.45 948.22 248.71 948.1 263.83 948.1C278.95 948.1 291.22 948.22 291.22 948.36C291.22 948.5 278.96 948.61 263.83 948.61C248.7 948.61 236.45 948.5 236.45 948.36Z" fill="#263238"/>
<path d="M63.8 978.92H54.85L51.53 938.62H62.07L63.8 978.92Z" fill="#263238"/>
<path d="M141.39 978.92H150.35L153.67 938.62H143.12L141.39 978.92Z" fill="#263238"/>
<path d="M159.82 943.72L44.58 946.42L41.07 872C40.9888 870.273 41.259 868.547 41.8642 866.927C42.4694 865.308 43.3969 863.827 44.5908 862.576C45.7846 861.326 47.2199 860.33 48.8097 859.65C50.3996 858.97 52.1108 858.62 53.84 858.62H152C153.753 858.62 155.488 858.981 157.096 859.68C158.704 860.379 160.151 861.401 161.347 862.683C162.543 863.965 163.462 865.48 164.048 867.133C164.633 868.785 164.872 870.541 164.75 872.29L159.82 943.72Z" fill="#18A4F5"/>
<path d="M165.73 871.74C165.621 871.755 165.51 871.755 165.4 871.74H164.46L160.83 871.8L147.47 871.85C136.19 871.85 120.61 871.74 103.41 872.14C86.2001 872.71 70.6001 872.61 59.3201 872.44C53.6801 872.35 49.1201 872.24 45.9701 872.15L42.3401 872.02H41.4001H41.0701C41.1799 872.011 41.2902 872.011 41.4001 872.02H42.3401L46.0001 872L59.3601 872.13C70.6401 872.21 86.2201 872.25 103.42 871.68C120.64 871.28 136.22 871.46 147.5 871.54L160.86 871.65L164.49 871.7H165.43C165.531 871.702 165.632 871.716 165.73 871.74Z" fill="#263238"/>
<path d="M83.1099 859.77C80.5207 860.142 78.0004 860.894 75.6299 862C73.3381 863.266 71.2456 864.863 69.4199 866.74C69.7814 866.042 70.2658 865.416 70.8499 864.89C72.1687 863.528 73.7026 862.393 75.3899 861.53C77.0788 860.672 78.8958 860.095 80.7699 859.82C81.5416 859.672 82.3326 859.655 83.1099 859.77Z" fill="#263238"/>
<path d="M130.5 724.44L144.59 750.17L165.23 738.63L175.23 741.94C175.23 741.94 150 769.39 145.84 770.79C141.68 772.19 134 772.45 129.5 766.88C125.5 761.81 113.67 735.21 113.67 735.21L130.5 724.44Z" fill="#FFBE9D"/>
<path d="M188.5 707.64C188.325 707.415 188.095 707.238 187.833 707.126C187.57 707.014 187.284 706.97 187 707L177.18 708.35C176.754 708.417 176.347 708.572 175.985 708.806C175.623 709.041 175.315 709.349 175.08 709.71L154.71 741.03L156.27 741.9L167.12 741.56L188.81 708L188.5 707.64Z" fill="#263238"/>
<path d="M181.55 711.71C181.627 711.835 181.742 711.933 181.878 711.989C182.015 712.046 182.165 712.057 182.308 712.023C182.451 711.989 182.58 711.91 182.676 711.799C182.772 711.687 182.831 711.548 182.843 711.401C182.855 711.254 182.821 711.107 182.745 710.981C182.669 710.855 182.555 710.756 182.42 710.698C182.284 710.641 182.134 710.627 181.991 710.66C181.847 710.692 181.717 710.769 181.62 710.88C181.501 710.981 181.427 711.125 181.413 711.281C181.4 711.436 181.449 711.591 181.55 711.71Z" fill="white"/>
<path d="M188.81 708C188.187 708.173 187.552 708.297 186.91 708.37L181.71 709.18L178.12 709.71C177.816 709.732 177.52 709.824 177.257 709.979C176.993 710.133 176.769 710.345 176.6 710.6L175.44 712.4L170.23 720.4C166.53 726.08 163.14 731.21 160.67 734.91C159.47 736.68 158.47 738.15 157.67 739.27C157.329 739.819 156.941 740.338 156.51 740.82C156.8 740.236 157.135 739.674 157.51 739.14L160.31 734.68C162.69 730.93 166.02 725.76 169.73 720.08L174.97 712.08L176.16 710.29C176.374 709.994 176.649 709.748 176.966 709.569C177.284 709.389 177.636 709.28 178 709.25L181.61 708.79L186.84 708.17C187.491 708.059 188.15 708.002 188.81 708Z" fill="#E8F6FE"/>
<path d="M177.92 719.22C177.92 719.22 177.05 719.07 176.57 721.46C176.09 723.85 174.57 730.72 174.57 730.72L170 728.28L164.27 729.03C164.27 729.03 163.02 730.18 163.94 730.81C164.86 731.44 168.48 732.09 168.48 732.09L171.15 735.93L163.48 732.23C163.48 732.23 160.92 732.9 161.67 734.46C162.42 736.02 167.59 740.91 167.59 740.91L163.75 740.62L159.18 737.84C159.18 737.84 157.78 737.91 158.3 739.1C158.82 740.29 163.58 744.61 163.58 744.61L169.34 747.41C169.34 747.41 172.48 747.16 172.79 746.24C172.994 745.505 173.121 744.751 173.17 743.99C173.17 743.99 174.84 743.54 175.17 742.73C175.354 742.049 175.391 741.337 175.28 740.64C175.28 740.64 177.9 741.1 178.23 739.64C178.459 737.82 178.385 735.975 178.01 734.18C177.75 733.05 179.13 722.61 179.01 722.29C178.89 721.97 179.57 718.53 177.92 719.22Z" fill="#FFBE9D"/>
<path d="M173 746.25C172.544 746.53 172.025 746.692 171.49 746.72C168.939 747.076 166.347 746.458 164.23 744.99C163.43 744.41 163.05 743.99 163.1 743.89C163.15 743.79 165.03 745.33 167.83 745.97C170.63 746.61 172.92 746.07 173 746.25Z" fill="#EB996E"/>
<path d="M171.58 744.18C171.49 744.31 170.47 743.78 169.38 742.88C168.29 741.98 167.57 741.09 167.68 740.98C167.79 740.87 168.68 741.55 169.76 742.43C170.84 743.31 171.68 744 171.58 744.18Z" fill="#EB996E"/>
<path d="M174.61 739.21C174.53 739.34 173.51 738.82 172.49 737.87C171.47 736.92 170.87 735.96 170.99 735.87C171.11 735.78 171.9 736.54 172.89 737.45C173.88 738.36 174.71 739.07 174.61 739.21Z" fill="#EB996E"/>
<path d="M177.8 735.2C177.65 735.27 177.07 734.2 176.15 733.01C175.23 731.82 174.35 731.01 174.46 730.85C174.57 730.69 175.66 731.39 176.62 732.65C177.283 733.347 177.697 734.243 177.8 735.2Z" fill="#EB996E"/>
<path d="M181.7 920.66C181.778 920.351 181.778 920.028 181.7 919.72C181.555 918.856 181.231 918.032 180.75 917.3C180.587 917.049 180.396 916.817 180.18 916.61C180.037 916.478 179.862 916.386 179.672 916.344C179.483 916.302 179.285 916.311 179.1 916.37C178.991 916.408 178.892 916.469 178.811 916.551C178.729 916.632 178.668 916.731 178.63 916.84C178.558 917.051 178.558 917.279 178.63 917.49C178.764 917.839 178.931 918.174 179.13 918.49C179.5 919.12 179.81 919.74 180.28 920.49C180.422 920.692 180.615 920.852 180.841 920.952C181.066 921.053 181.315 921.09 181.56 921.06C182.008 920.984 182.431 920.799 182.79 920.52C183.45 920.032 184.054 919.472 184.59 918.85C184.847 918.556 185.084 918.245 185.3 917.92C185.549 917.606 185.733 917.246 185.84 916.86C185.9 916.634 185.878 916.394 185.78 916.182C185.681 915.97 185.511 915.8 185.3 915.7C185.102 915.641 184.892 915.633 184.691 915.679C184.489 915.724 184.303 915.821 184.15 915.96C183.695 916.361 183.292 916.818 182.95 917.32C182.447 918.027 182.046 918.801 181.76 919.62C181.628 919.909 181.56 920.223 181.56 920.54C182.029 919.486 182.602 918.481 183.27 917.54C183.606 917.088 183.996 916.678 184.43 916.32C184.65 916.16 184.94 916.05 185.11 916.14C185.21 916.2 185.286 916.292 185.326 916.401C185.366 916.51 185.367 916.63 185.33 916.74C185.224 917.052 185.065 917.343 184.86 917.6C184.647 917.887 184.417 918.177 184.17 918.47C183.658 919.054 183.085 919.58 182.46 920.04C182.166 920.264 181.823 920.415 181.46 920.48C181.312 920.499 181.161 920.477 181.025 920.415C180.889 920.353 180.773 920.254 180.69 920.13C180.29 919.55 179.92 918.84 179.55 918.25C179.372 917.973 179.212 917.686 179.07 917.39C178.98 917.12 179.07 916.94 179.22 916.87C179.65 916.69 180.07 917.18 180.37 917.59C181.001 918.521 181.452 919.562 181.7 920.66Z" fill="#263238"/>
<path d="M157.13 921.5L144.92 947.95L125.23 938.85L137.86 906.12L157.13 921.5Z" fill="#FFBE9D"/>
<path d="M147.23 946.18L140.1 959.78C140.1 959.78 158.35 978.65 156.64 982.87L113.74 962.3L125.52 935L147.23 946.18Z" fill="#E8F6FE"/>
<path d="M127.73 951.56C127.256 951.501 126.777 951.614 126.379 951.878C125.981 952.143 125.69 952.54 125.56 953C125.472 953.468 125.565 953.952 125.822 954.354C126.078 954.755 126.478 955.044 126.94 955.16C127.442 955.248 127.959 955.14 128.385 954.86C128.81 954.579 129.113 954.146 129.23 953.65C129.275 953.15 129.124 952.653 128.809 952.263C128.493 951.872 128.038 951.62 127.54 951.56" fill="#E0E0E0"/>
<g opacity="0.6">
<path d="M113.74 962.3L115.52 958.88L155.99 979.88C155.99 979.88 157.5 981.63 156.64 982.88L113.74 962.3Z" fill="white"/>
</g>
<path d="M140.9 959.89C140.79 960.1 139.7 959.69 138.35 959.89C137 960.09 136.02 960.69 135.87 960.51C135.72 960.33 136.61 959.28 138.25 959.09C139.89 958.9 141 959.72 140.9 959.89Z" fill="#263238"/>
<path d="M144.51 963.91C144.46 964.14 143.38 964.06 142.25 964.61C141.12 965.16 140.45 965.99 140.25 965.88C140.05 965.77 140.48 964.52 141.91 963.88C143.34 963.24 144.6 963.71 144.51 963.91Z" fill="#263238"/>
<path d="M144.48 970.52C144.27 970.52 144.48 969.29 145.57 968.4C146.66 967.51 147.86 967.53 147.86 967.74C147.86 967.95 146.97 968.28 146.08 969.03C145.19 969.78 144.7 970.6 144.48 970.52Z" fill="#263238"/>
<path d="M143 954.66C142.82 954.81 142 954.06 140.77 953.57C139.54 953.08 138.45 953.01 138.43 952.78C138.41 952.55 139.65 952.23 141.08 952.78C142.51 953.33 143.13 954.54 143 954.66Z" fill="#263238"/>
<path d="M151.25 942.66L183.41 862.16C183.41 862.16 182.69 848.43 180.16 844.09C177.63 839.75 101 814.45 101 814.45C101 814.45 81.4799 809.75 68.4699 814.45C55.4599 819.15 45.6999 835.45 47.4699 844.45C49.2399 853.45 56.9999 860.12 56.9999 860.12L113.3 861.8L144 873L123.33 932.28L151.25 942.66Z" fill="#263238"/>
<path d="M179.86 887.65L180.58 916.77L158.9 917.3L155.78 882.36L179.86 887.65Z" fill="#FFBE9D"/>
<path d="M181.87 914.16L181.48 929.51C181.48 929.51 206.18 938.38 206.48 942.93L158.9 943.41L157.44 913.74L181.87 914.16Z" fill="#E8F6FE"/>
<path d="M166.75 927.6C166.292 927.742 165.904 928.048 165.66 928.461C165.416 928.873 165.334 929.361 165.43 929.83C165.557 930.291 165.856 930.686 166.265 930.933C166.674 931.18 167.163 931.262 167.63 931.16C168.112 931.005 168.52 930.677 168.775 930.24C169.029 929.802 169.113 929.286 169.01 928.79C168.83 928.321 168.475 927.941 168.019 927.73C167.564 927.519 167.044 927.494 166.57 927.66" fill="#E0E0E0"/>
<g opacity="0.6">
<path d="M158.93 943.41L159.03 939.55L204.6 940.55C204.6 940.55 206.73 941.45 206.51 942.95L158.93 943.41Z" fill="white"/>
</g>
<path d="M182.25 929.26C182.25 929.49 181.08 929.61 179.95 930.37C178.82 931.13 178.21 932.11 178 932.02C177.79 931.93 178.12 930.58 179.51 929.69C180.9 928.8 182.3 929.05 182.25 929.26Z" fill="#263238"/>
<path d="M187.26 931.27C187.31 931.5 186.31 931.9 185.53 932.89C184.75 933.88 184.53 934.89 184.3 934.89C184.07 934.89 183.91 933.57 184.9 932.35C185.89 931.13 187.25 931.05 187.26 931.27Z" fill="#263238"/>
<path d="M190.15 937.22C189.94 937.22 189.61 936.11 190.15 934.83C190.69 933.55 191.82 933.04 191.92 933.23C192.02 933.42 191.35 934.11 190.92 935.17C190.49 936.23 190.38 937.19 190.15 937.22Z" fill="#263238"/>
<path d="M181.77 923.66C181.68 923.87 180.61 923.56 179.3 923.66C177.99 923.76 176.96 924.19 176.84 923.99C176.72 923.79 177.69 922.99 179.24 922.86C180.79 922.73 181.88 923.47 181.77 923.66Z" fill="#263238"/>
<path d="M167.2 806.82C167.2 806.82 180.2 805.82 181.63 819.87C183.06 833.92 184.5 899.75 184.5 899.75L154.14 902.28L149.44 835.05L101 814.45C101 814.45 158.52 805 167.2 806.82Z" fill="#263238"/>
<path d="M113.65 787.79C113.65 787.79 121.53 809.9 120 812.36C118.47 814.82 98.2501 825 98.2501 825L47.5201 844.45C47.5201 844.45 42.3101 836.16 42.3101 823.45C42.3101 810.74 60.0001 787.79 60.0001 787.79H113.65Z" fill="#263238"/>
<path d="M98.6101 813.32C98.6825 813.376 98.7636 813.42 98.8501 813.45L99.5701 813.79L102.38 815L112.92 819.59L149.33 835.26L149.17 835.03C149.63 841.67 150.17 848.84 150.64 856.26C151.88 873.61 153.01 889.6 153.91 902.26V902.49H154.14L176.26 900.55L182.35 899.98L183.94 899.82C184.122 899.809 184.303 899.782 184.48 899.74C184.297 899.725 184.113 899.725 183.93 899.74L182.33 899.84L176.23 900.29L154.1 902.03L154.34 902.24C153.48 889.59 152.34 873.59 151.19 856.24C150.67 848.83 150.19 841.65 149.69 835.01V834.85L149.54 834.78L113.06 819.31L102.45 814.87L99.6101 813.7L98.8701 813.41L98.6101 813.32Z" fill="#E8F6FE"/>
<path d="M58.26 815.54C58.7465 815.449 59.2248 815.319 59.69 815.15L63.51 813.92C67.6774 812.503 71.9508 811.419 76.29 810.68C80.6298 809.972 85.0601 810.029 89.38 810.85C92.68 811.54 94.58 812.48 94.62 812.37C94.21 812.092 93.7665 811.867 93.3 811.7C92.0574 811.179 90.7728 810.764 89.46 810.46C85.1044 809.511 80.6085 809.396 76.21 810.12C71.8356 810.855 67.54 812 63.38 813.54C61.78 814.1 60.49 814.59 59.61 814.94C59.1407 815.093 58.6883 815.294 58.26 815.54Z" fill="#E8F6FE"/>
<path d="M65.4299 803.88C66.9086 803.79 68.3913 803.79 69.8699 803.88C71.2299 803.97 72.8699 804.18 74.6699 804.39C76.4699 804.6 78.4599 804.85 80.5199 805.24C84.0446 805.801 87.423 807.055 90.4599 808.93C91.6773 809.766 92.8275 810.695 93.8999 811.71C93.7163 811.337 93.4693 810.999 93.1699 810.71C92.422 809.903 91.5869 809.182 90.6799 808.56C87.6471 806.546 84.2159 805.209 80.6199 804.64C78.5399 804.25 76.5399 804.02 74.7299 803.83C72.9199 803.64 71.2799 803.48 69.8899 803.44C68.7946 803.391 67.6971 803.438 66.6099 803.58C66.2042 803.623 65.8067 803.724 65.4299 803.88Z" fill="#E8F6FE"/>
<path d="M87.84 626.24C82 625.24 76.87 627.49 72 630.78C67.0714 634.161 63.2957 638.97 61.18 644.56C58.843 650.399 58.4675 656.839 60.11 662.91C60.9523 665.92 62.3958 668.729 64.3534 671.166C66.311 673.603 68.7421 675.618 71.5 677.09C79.1 681 88.81 679.6 95.6 674.46C102.39 669.32 106.28 660.83 106.6 652.32C106.91 646.414 105.353 640.561 102.15 635.59C100.535 633.132 98.4306 631.034 95.9686 629.425C93.5066 627.816 90.7395 626.732 87.84 626.24Z" fill="#263238"/>
<path d="M71.2399 646.09C72.0899 643.85 71.7599 641.36 72.0999 638.99C72.8399 633.78 76.9999 629.6 81.8999 627.57C86.4199 625.68 91.8999 626.09 97.3799 627.85C101.159 628.998 104.533 631.197 107.11 634.19C108.746 636.224 109.871 638.619 110.393 641.176C110.915 643.733 110.818 646.378 110.11 648.89L83.4499 645C80.9599 647.07 78.3999 649.17 75.3699 650.32C74.4976 650.707 73.5391 650.859 72.5899 650.76C72.1166 650.702 71.6696 650.51 71.3012 650.208C70.9328 649.905 70.6584 649.503 70.5099 649.05C70.2699 648.05 70.8699 647.06 71.2399 646.09Z" fill="#263238"/>
<path d="M98.0001 635.21L74.6701 640.15C73.5845 640.222 72.5653 640.699 71.8137 641.486C71.0622 642.272 70.6327 643.312 70.6101 644.4L70.8901 694.79C70.9092 698.231 72.0621 701.57 74.1701 704.29L76.3901 707.15C81.4601 713.68 91.7101 713.03 95.5801 705.72C95.8123 705.308 95.9904 704.868 96.1101 704.41C96.2049 704.034 96.2784 703.654 96.3301 703.27L96.7801 698.36C97.0001 693.87 97.0301 689.36 97.0401 689.36C97.0501 689.36 106.56 688.16 109.04 675.88C110.25 669.78 110.33 659.69 110.13 651.44C109.92 644 105.37 634.72 98.0001 635.21Z" fill="#FFBE9D"/>
<path d="M106.56 660.89C106.547 661.298 106.378 661.685 106.088 661.972C105.797 662.258 105.408 662.422 105 662.43C104.797 662.437 104.595 662.403 104.406 662.331C104.216 662.259 104.043 662.15 103.896 662.01C103.749 661.871 103.631 661.703 103.55 661.518C103.468 661.332 103.424 661.133 103.42 660.93C103.435 660.52 103.608 660.131 103.902 659.844C104.196 659.557 104.589 659.395 105 659.39C105.201 659.385 105.402 659.419 105.589 659.492C105.777 659.565 105.948 659.674 106.094 659.814C106.239 659.953 106.355 660.12 106.435 660.305C106.515 660.49 106.557 660.689 106.56 660.89Z" fill="#263238"/>
<path d="M107.71 656.59C107.51 656.78 106.34 655.85 104.64 655.79C102.94 655.73 101.64 656.53 101.48 656.31C101.32 656.09 101.6 655.85 102.16 655.48C102.919 654.995 103.81 654.757 104.71 654.8C105.594 654.832 106.444 655.144 107.14 655.69C107.65 656.12 107.81 656.5 107.71 656.59Z" fill="#263238"/>
<path d="M91.2801 660.5C91.2595 660.907 91.0826 661.29 90.7864 661.569C90.4901 661.849 90.0974 662.003 89.6901 662C89.4877 662.009 89.2854 661.978 89.0954 661.908C88.9054 661.837 88.7314 661.729 88.584 661.59C88.4366 661.451 88.3186 661.284 88.2372 661.098C88.1558 660.913 88.1126 660.713 88.1101 660.51C88.1306 660.102 88.3072 659.718 88.6032 659.437C88.8992 659.156 89.2919 658.999 89.7001 659C89.903 658.992 90.1055 659.025 90.2956 659.096C90.4857 659.168 90.6595 659.277 90.8068 659.416C90.954 659.556 91.0718 659.724 91.1531 659.91C91.2344 660.096 91.2776 660.297 91.2801 660.5Z" fill="#263238"/>
<path d="M91.53 656.17C91.32 656.37 90.15 655.43 88.45 655.37C86.75 655.31 85.45 656.12 85.29 655.9C85.13 655.68 85.41 655.44 85.97 655.06C86.7315 654.581 87.6215 654.347 88.52 654.39C89.4076 654.418 90.2628 654.73 90.96 655.28C91.46 655.7 91.63 656.08 91.53 656.17Z" fill="#263238"/>
<path d="M96.6401 669.14C97.5497 668.891 98.487 668.756 99.4301 668.74C99.8701 668.74 100.28 668.64 100.37 668.35C100.421 667.903 100.338 667.45 100.13 667.05C99.7601 665.98 99.3701 664.86 98.9701 663.68C97.3601 658.9 96.2201 655 96.4101 654.9C96.6001 654.8 98.0601 658.67 99.6701 663.46C100.05 664.64 100.42 665.76 100.77 666.84C101.027 667.376 101.084 667.986 100.93 668.56C100.86 668.71 100.757 668.843 100.629 668.948C100.501 669.054 100.351 669.13 100.19 669.17C99.9474 669.225 99.6987 669.248 99.4501 669.24C98.5129 669.322 97.5691 669.288 96.6401 669.14Z" fill="#263238"/>
<path d="M96.9999 689.35C91.1912 689.209 85.5351 687.461 80.6599 684.3C80.6599 684.3 84.4899 693.01 96.8999 692.3L96.9999 689.35Z" fill="#EB996E"/>
<path d="M95.76 673.22C95.4531 672.799 95.0418 672.465 94.5667 672.251C94.0915 672.037 93.5687 671.95 93.05 672C92.6663 672.023 92.2912 672.123 91.9474 672.295C91.6036 672.467 91.2983 672.707 91.05 673C90.8174 673.273 90.6729 673.611 90.6355 673.967C90.598 674.324 90.6693 674.684 90.84 675C91.1025 675.315 91.4527 675.545 91.8462 675.661C92.2397 675.776 92.6586 675.773 93.05 675.65C93.8681 675.398 94.6268 674.983 95.28 674.43C95.4798 674.305 95.653 674.142 95.79 673.95C95.8528 673.855 95.8862 673.744 95.8862 673.63C95.8862 673.516 95.8528 673.405 95.79 673.31" fill="#EB996E"/>
<path d="M91.5799 670.12C91.8599 670.12 91.7899 671.96 93.3199 673.34C94.8499 674.72 96.8299 674.59 96.8399 674.85C96.8499 675.11 96.3799 675.19 95.5499 675.18C94.4609 675.148 93.4188 674.73 92.6099 674C91.8283 673.309 91.3474 672.34 91.2699 671.3C91.2299 670.55 91.4499 670.1 91.5799 670.12Z" fill="#263238"/>
<path d="M91.4299 651.11C91.2499 651.57 89.5499 651.28 87.5399 651.44C85.5299 651.6 83.8899 652.09 83.6399 651.66C83.5299 651.46 83.8299 651.04 84.4999 650.61C85.3925 650.097 86.3897 649.793 87.4167 649.72C88.4437 649.647 89.4739 649.808 90.4299 650.19C91.1599 650.51 91.5099 650.89 91.4299 651.11Z" fill="#263238"/>
<path d="M107.51 649.11C107.19 649.49 106.04 649.04 104.62 648.97C103.2 648.9 102.01 649.12 101.75 648.71C101.63 648.51 101.84 648.13 102.37 647.78C103.091 647.37 103.918 647.182 104.745 647.241C105.573 647.299 106.364 647.602 107.02 648.11C107.5 648.52 107.65 648.93 107.51 649.11Z" fill="#263238"/>
<path d="M67 642.49C69.39 635.4 79.93 625.74 87.38 626.41L99.17 633.8C98.7392 635.83 97.7686 637.706 96.3605 639.23C94.9525 640.754 93.1593 641.87 91.17 642.46C89.05 643.06 86.51 643.18 85.17 644.97C83.83 646.76 84.55 649.51 83.32 651.39C81.61 654.01 77.1 653.79 75.8 656.63C75.24 657.87 75.49 659.37 74.9 660.63C74.12 662.27 69.9 664.29 68.17 663.7C66.44 663.11 66.5 660.17 65.97 658.61C65.2912 656.855 65.2382 654.92 65.82 653.13C66.71 649.62 65.82 645.87 67 642.49Z" fill="#263238"/>
<path d="M73.31 665.23C73.31 664.31 72.31 662.1 71.46 661.93C69.05 661.45 64.67 661.48 64.39 667.64C64.01 676.06 72.54 674.71 72.56 674.46C72.58 674.21 73.19 668.41 73.31 665.23Z" fill="#FFBE9D"/>
<path d="M70.14 671.16C70.14 671.16 69.98 671.25 69.73 671.36C69.3768 671.5 68.9833 671.5 68.63 671.36C67.76 671 67.08 669.52 67.1 668C67.1164 667.275 67.2904 666.561 67.61 665.91C67.7008 665.652 67.8528 665.42 68.0532 665.233C68.2535 665.047 68.496 664.912 68.76 664.84C68.9308 664.803 69.1091 664.826 69.2643 664.907C69.4195 664.987 69.5418 665.119 69.61 665.28C69.71 665.52 69.61 665.69 69.7 665.7C69.79 665.71 69.88 665.57 69.83 665.22C69.7868 665.012 69.6782 664.822 69.52 664.68C69.4107 664.586 69.2833 664.516 69.1458 664.473C69.0082 664.43 68.8634 664.415 68.72 664.43C68.37 664.476 68.0385 664.615 67.7593 664.831C67.48 665.047 67.2629 665.333 67.13 665.66C66.7383 666.378 66.5288 667.182 66.52 668C66.52 669.69 67.29 671.32 68.52 671.73C68.7429 671.805 68.9795 671.829 69.213 671.802C69.4464 671.774 69.6708 671.695 69.87 671.57C70.11 671.36 70.16 671.17 70.14 671.16Z" fill="#EB996E"/>
<path d="M65.17 640.31C65.17 637.67 61.91 635.95 59.34 635.31C56.7179 634.86 54.0214 635.375 51.75 636.76C50.4 637.5 49.04 638.56 48.75 640.07C48.46 641.58 49.9 643.38 51.34 642.84C50.6698 643.108 50.0625 643.512 49.5564 644.027C49.0504 644.542 48.6567 645.156 48.4001 645.831C48.1436 646.506 48.0297 647.227 48.0659 647.948C48.102 648.669 48.2873 649.374 48.61 650.02C48.9981 650.63 49.5083 651.152 50.1085 651.555C50.7086 651.957 51.3857 652.231 52.097 652.359C52.8082 652.487 53.5383 652.466 54.241 652.297C54.9438 652.129 55.604 651.816 56.18 651.38C55.4458 653.82 53.9006 655.937 51.8 657.38C53.9763 657.665 56.1894 657.385 58.2262 656.567C60.263 655.749 62.0551 654.421 63.43 652.71C64.7578 650.965 65.6151 648.909 65.9198 646.737C66.2244 644.566 65.9663 642.353 65.17 640.31Z" fill="#263238"/>
<path d="M59.32 653.7C59.0733 652.88 58.9652 652.025 59 651.17C58.9691 647.012 60.3315 642.963 62.87 639.67C63.3579 638.969 63.9595 638.353 64.65 637.85C64.81 637.96 61.98 640.76 60.5 645.27C59.02 649.78 59.51 653.71 59.32 653.7Z" fill="#18A4F5"/>
<path d="M96.72 631.26C97.5 634.69 102.72 639.08 105 641.75C109.36 646.84 110.22 648.53 110.18 659.92C112.24 655.99 113.82 652.13 113.66 647.7C113.564 643.215 111.828 638.921 108.78 635.63C107.25 634.011 105.363 632.772 103.269 632.014C101.174 631.255 98.9318 630.997 96.72 631.26Z" fill="#263238"/>
<path d="M132.43 724.94C132.43 724.94 123.36 709.81 120.84 706.75C118.817 704.385 116.274 702.52 113.41 701.3C112.274 700.827 111.086 700.492 109.87 700.3L96.82 697.37C96.82 697.37 96.82 706.27 87.47 706.82C78.12 707.37 70.27 694.37 70.27 694.37C70.27 694.37 55.2 696.71 51.59 698.56C47.98 700.41 42.31 702.77 39.19 718.4L37 733.68L63 736.08L65.49 774.72L78.38 783.72C78.38 783.72 114.13 793.01 116.38 793.63C118.63 794.25 119.38 736.1 119.38 736.1C119.38 736.1 128.63 730.15 132.43 724.94Z" fill="#263238"/>
<path d="M115.32 718.45C115.534 718.797 115.702 719.17 115.82 719.56C116.12 720.29 116.5 721.36 116.92 722.7C118.009 726.203 118.779 729.798 119.22 733.44C119.67 737.088 119.791 740.77 119.58 744.44C119.49 745.84 119.39 746.97 119.27 747.75C119.251 748.158 119.177 748.562 119.05 748.95C119.013 748.544 119.013 748.136 119.05 747.73C119.1 746.95 119.15 745.82 119.19 744.42C119.288 740.779 119.12 737.136 118.69 733.52C118.239 729.909 117.524 726.336 116.55 722.83C116.17 721.48 115.85 720.39 115.61 719.65C115.472 719.261 115.375 718.859 115.32 718.45Z" fill="#E8F6FE"/>
<path d="M114.21 781.73L65.26 771.07L63 736.07L41.23 734.07C41.23 734.07 42 758 42.87 765.1C44.08 775.33 50.12 789.29 53.66 792.1C57.2 794.91 116.41 793.64 116.41 793.64L114.21 781.73Z" fill="#FFBE9D"/>
<path d="M142 788.07C141.837 788.408 141.577 788.69 141.252 788.879C140.928 789.068 140.554 789.155 140.18 789.13C140.017 789.118 139.856 789.088 139.7 789.04C138.62 788.69 138.7 786.49 138.7 786.49L133.51 785.64C133.51 785.64 126.77 789.99 124.37 792.87C121.97 795.75 115.85 793.42 115.85 793.42L113.72 782.36L123.27 773.73C123.27 773.73 122.69 774.24 123.34 772.63C123.99 771.02 127 771.63 127 771.63C127.47 770.83 129.43 770.55 129.43 770.55L137.81 771.55C138.661 771.65 139.479 771.939 140.204 772.396C140.929 772.853 141.542 773.466 142 774.19L145.54 779.8C145.54 779.8 147.41 783.8 147.11 784.8C146.979 785.192 146.707 785.522 146.347 785.725C145.986 785.928 145.564 785.991 145.16 785.9C145.16 785.9 144.75 788.56 144.05 788.65C143.335 788.613 142.633 788.443 141.98 788.15L142 788.07Z" fill="#FFBE9D"/>
<path d="M124.17 780.13C124.17 780.22 125.3 780.13 127.09 780.19C129.414 780.302 131.712 780.733 133.92 781.47C135.133 781.883 136.313 782.387 137.45 782.98C138.45 783.55 139.51 783.98 139.84 784.75C139.914 784.91 139.945 785.086 139.93 785.262C139.914 785.438 139.852 785.606 139.75 785.75C139.594 785.989 139.372 786.177 139.11 786.29C138.875 786.367 138.627 786.401 138.38 786.39C138.38 786.39 138.64 786.62 139.18 786.48C139.505 786.388 139.79 786.191 139.99 785.92C140.134 785.738 140.228 785.521 140.263 785.291C140.298 785.062 140.273 784.827 140.19 784.61C139.979 784.13 139.631 783.723 139.19 783.44C138.73 783.14 138.25 782.83 137.72 782.55C136.561 781.922 135.345 781.403 134.09 781C131.834 780.24 129.47 779.848 127.09 779.84C126.107 779.786 125.123 779.884 124.17 780.13Z" fill="#EB996E"/>
<path d="M123.59 785.47C123.59 785.63 127.01 785.47 131.19 785.73C135.37 785.99 138.75 786.49 138.78 786.33C138.08 786.057 137.347 785.879 136.6 785.8C134.82 785.498 133.023 785.298 131.22 785.2C129.418 785.1 127.612 785.1 125.81 785.2C125.061 785.186 124.314 785.277 123.59 785.47Z" fill="#EB996E"/>
<path d="M142 787.86C142.075 787.569 142.112 787.27 142.11 786.97C142.161 786.151 142.161 785.329 142.11 784.51C142.082 783.941 142.005 783.376 141.88 782.82C141.707 782.162 141.408 781.544 141 781C140.174 779.734 139.107 778.643 137.86 777.79C136.628 776.937 135.281 776.264 133.86 775.79C132.681 775.457 131.465 775.272 130.24 775.24C129.24 775.24 128.37 775.24 127.8 775.24C127.497 775.22 127.193 775.25 126.9 775.33C128 775.494 129.108 775.587 130.22 775.61C131.404 775.689 132.575 775.903 133.71 776.25C135.077 776.74 136.372 777.413 137.56 778.25C138.743 779.069 139.761 780.104 140.56 781.3C141.216 782.273 141.593 783.408 141.65 784.58C141.89 786.57 141.84 787.86 142 787.86Z" fill="#EB996E"/>
<path d="M129.85 772.67C129.85 772.75 131.11 772.78 133.11 773.01C135.11 773.24 138.11 773.44 139.88 776.1C141.583 778.085 143.003 780.296 144.1 782.67C144.463 783.69 144.731 784.741 144.9 785.81C144.949 785.515 144.949 785.215 144.9 784.92C144.858 784.107 144.696 783.305 144.42 782.54C143.4 780.075 141.992 777.79 140.25 775.77C139.779 775.153 139.232 774.598 138.62 774.12C138.016 773.693 137.338 773.381 136.62 773.2C135.46 772.887 134.27 772.696 133.07 772.63C131.999 772.507 130.917 772.52 129.85 772.67Z" fill="#EB996E"/>
<path d="M126.22 791.09C126.397 790.978 126.564 790.851 126.72 790.71L128.12 789.58C129.88 788.213 131.716 786.947 133.62 785.79H133.51L138.69 786.67L138.51 786.46C138.494 786.883 138.527 787.305 138.61 787.72C138.671 788.188 138.878 788.625 139.2 788.97C139.39 789.142 139.627 789.253 139.88 789.29C140.121 789.34 140.369 789.34 140.61 789.29C141.111 789.216 141.569 788.964 141.9 788.58C141.985 788.483 142.062 788.38 142.13 788.27L142.18 788.19V788.14L141.88 788.25L142.05 788.31C142.27 788.4 142.49 788.48 142.72 788.55C142.952 788.626 143.189 788.687 143.43 788.73C143.556 788.74 143.683 788.74 143.81 788.73C143.975 788.748 144.142 788.717 144.29 788.64C144.523 788.464 144.7 788.225 144.8 787.95C144.906 787.721 144.993 787.483 145.06 787.24C145.202 786.758 145.312 786.267 145.39 785.77L145.09 785.98C145.441 786.053 145.806 786.031 146.145 785.915C146.485 785.798 146.787 785.593 147.02 785.32C147.249 785.037 147.376 784.684 147.38 784.32C147.351 783.982 147.291 783.647 147.2 783.32C146.807 782.046 146.33 780.8 145.77 779.59L143.88 776.59L142.68 774.7C142.312 774.041 141.873 773.424 141.37 772.86C140.832 772.323 140.193 771.898 139.49 771.61C138.803 771.355 138.082 771.207 137.35 771.17L129.46 770.28H129.4C128.925 770.356 128.46 770.48 128.01 770.65C127.53 770.794 127.109 771.088 126.81 771.49L127.1 771.4C126.674 771.203 126.205 771.114 125.736 771.14C125.267 771.166 124.812 771.307 124.41 771.55C123.71 772.059 123.234 772.818 123.08 773.67L123.14 773.56L116.56 779.48L114.79 781.11C114.574 781.293 114.373 781.494 114.19 781.71C114.43 781.563 114.655 781.392 114.86 781.2L116.71 779.64L123.4 773.86V773.79C123.545 773.052 123.963 772.395 124.57 771.95C124.912 771.751 125.297 771.638 125.693 771.621C126.088 771.604 126.482 771.682 126.84 771.85L127.02 771.92L127.13 771.76C127.391 771.45 127.74 771.227 128.13 771.12C128.548 770.969 128.98 770.859 129.42 770.79H129.36L137.25 771.72C137.934 771.76 138.608 771.902 139.25 772.14C139.887 772.399 140.465 772.783 140.95 773.27C141.424 773.808 141.84 774.394 142.19 775.02L143.39 776.92L145.28 779.92C145.836 781.098 146.308 782.315 146.69 783.56C146.778 783.85 146.835 784.148 146.86 784.45C146.872 784.71 146.783 784.965 146.61 785.16C146.438 785.359 146.215 785.508 145.965 785.591C145.715 785.673 145.447 785.687 145.19 785.63H144.93V785.88C144.854 786.356 144.75 786.826 144.62 787.29C144.538 787.703 144.352 788.088 144.08 788.41C144.01 788.421 143.94 788.421 143.87 788.41H143.55C143.33 788.371 143.113 788.317 142.9 788.25C142.68 788.19 142.47 788.11 142.26 788.03L142.11 787.97L141.8 788.09V788.15C141.749 788.237 141.692 788.321 141.63 788.4C141.374 788.699 141.019 788.898 140.63 788.96C140.442 789 140.248 789 140.06 788.96C139.883 788.943 139.716 788.874 139.58 788.76C139.144 788.129 138.942 787.364 139.01 786.6V786.4H138.84L133.64 785.58H133.5H133.44C131.543 786.741 129.726 788.027 128 789.43C127.4 789.94 127 790.35 126.65 790.63C126.493 790.771 126.35 790.924 126.22 791.09Z" fill="#EB996E"/>
<path d="M205.51 755.91L141.03 756.43C138.94 756.43 136.94 757.43 136.63 759.5L129.63 806.5H96.3699C95.8807 806.535 95.4231 806.754 95.0889 807.113C94.7548 807.472 94.5691 807.944 94.5691 808.435C94.5691 808.925 94.7548 809.398 95.0889 809.757C95.4231 810.116 95.8807 810.335 96.3699 810.37H202.45L209.7 760.77C209.789 760.168 209.747 759.553 209.578 758.968C209.408 758.384 209.114 757.842 208.717 757.381C208.319 756.92 207.827 756.55 207.274 756.296C206.72 756.042 206.119 755.911 205.51 755.91Z" fill="#E0E0E0"/>
<path d="M205.51 755.91C205.846 755.889 206.183 755.919 206.51 756C207.498 756.232 208.371 756.81 208.97 757.63C209.416 758.233 209.692 758.944 209.77 759.69C209.79 760.579 209.709 761.468 209.53 762.34L208.6 768.89C207.18 778.74 205.14 792.94 202.6 810.4V810.57H202.43L99.52 810.63H96.77C96.2634 810.677 95.7538 810.58 95.3 810.35C94.9586 810.159 94.6742 809.88 94.4763 809.543C94.2784 809.205 94.1741 808.821 94.1741 808.43C94.1741 808.039 94.2784 807.655 94.4763 807.317C94.6742 806.98 94.9586 806.701 95.3 806.51C95.7512 806.283 96.2576 806.19 96.76 806.24H129.58L129.34 806.45C131.87 789.62 134.24 773.92 136.34 759.83C136.406 758.89 136.832 758.012 137.53 757.38C138.234 756.793 139.091 756.419 140 756.3C140.864 756.216 141.732 756.186 142.6 756.21H145.13L154.84 756.15L172.09 756.04L196.65 755.91H204.92C205.3 755.91 205.49 755.91 205.49 755.91H204.92H203.22L196.65 756L172.09 756.28L154.84 756.45L145.13 756.54H142.6C141.755 756.523 140.911 756.556 140.07 756.64C139.237 756.742 138.454 757.09 137.82 757.64C137.21 758.213 136.851 759.004 136.82 759.84C134.72 773.93 132.37 789.63 129.82 806.46V806.68H96.82C96.4058 806.628 95.9856 806.698 95.61 806.88C95.2748 807.077 95.0168 807.383 94.8786 807.746C94.7404 808.11 94.7303 808.51 94.85 808.88C94.993 809.255 95.2615 809.57 95.61 809.77C95.9857 809.952 96.405 810.025 96.82 809.98H99.59L202.5 810.04L202.3 810.21C204.89 792.76 206.99 778.57 208.45 768.73C208.823 766.27 209.157 764.09 209.45 762.19C209.636 761.333 209.726 760.457 209.72 759.58C209.644 758.86 209.386 758.172 208.97 757.58C208.397 756.768 207.553 756.186 206.59 755.94C206.232 755.899 205.87 755.889 205.51 755.91Z" fill="#263238"/>
<path d="M170.54 786.58C172.771 786.58 174.58 784.771 174.58 782.54C174.58 780.309 172.771 778.5 170.54 778.5C168.309 778.5 166.5 780.309 166.5 782.54C166.5 784.771 168.309 786.58 170.54 786.58Z" fill="white"/>
<path d="M132.2 809.94C132.29 809.94 134.34 797.94 136.78 783.21C139.22 768.48 141.13 756.44 141.03 756.43C140.93 756.42 138.89 768.38 136.45 783.16C134.01 797.94 132.11 809.92 132.2 809.94Z" fill="#263238"/>
</g>
<g opacity="0.53">
<path d="M256.375 529.983C256.374 528.781 256.038 527.603 255.403 526.581C254.769 525.56 253.863 524.736 252.786 524.201C251.709 523.667 250.504 523.443 249.307 523.556C248.11 523.669 246.968 524.113 246.01 524.839C245.052 525.565 244.315 526.544 243.883 527.666C243.45 528.788 243.339 530.008 243.562 531.189C243.786 532.371 244.334 533.467 245.146 534.353C245.957 535.24 247 535.883 248.157 536.21V545.821H251.676V536.21C253.033 535.829 254.227 535.014 255.076 533.889C255.925 532.764 256.381 531.392 256.375 529.983Z" fill="#5B5B5B" fill-opacity="0.8"/>
</g>
</g>
</g>
<defs>
<linearGradient id="paint0_linear_1130_4289" x1="159" y1="0" x2="159" y2="982" gradientUnits="userSpaceOnUse">
<stop stop-color="#18A4F5"/>
<stop offset="0.804103" stop-color="#0A4567"/>
</linearGradient>
<linearGradient id="paint1_linear_1130_4289" x1="-22" y1="491" x2="-21.9999" y2="-211" gradientUnits="userSpaceOnUse">
<stop offset="0.223958" stop-color="#0D5A87" stop-opacity="0.09"/>
<stop offset="1" stop-color="#0D5A87"/>
</linearGradient>
<linearGradient id="paint2_linear_1130_4289" x1="-22" y1="491" x2="-21.9999" y2="-211" gradientUnits="userSpaceOnUse">
<stop offset="0.223958" stop-color="#0D5A87" stop-opacity="0.09"/>
<stop offset="1" stop-color="#0D5A87"/>
</linearGradient>
<linearGradient id="paint3_linear_1130_4289" x1="-22" y1="491" x2="-21.9999" y2="-211" gradientUnits="userSpaceOnUse">
<stop offset="0.223958" stop-color="#0D5A87" stop-opacity="0.09"/>
<stop offset="1" stop-color="#0D5A87"/>
</linearGradient>
<linearGradient id="paint4_linear_1130_4289" x1="-22" y1="491" x2="-21.9999" y2="-211" gradientUnits="userSpaceOnUse">
<stop offset="0.223958" stop-color="#0D5A87" stop-opacity="0.09"/>
<stop offset="1" stop-color="#0D5A87"/>
</linearGradient>
<clipPath id="clip0_1130_4289">
<rect width="318" height="982" fill="white"/>
</clipPath>
<clipPath id="clip1_1130_4289">
<rect width="318" height="528" fill="white" transform="translate(0 454)"/>
</clipPath>
<clipPath id="clip2_1130_4289">
<rect width="304.84" height="356.87" fill="white" transform="translate(7 626)"/>
</clipPath>
</defs>
</svg>
