<svg width="318" height="982" viewBox="0 0 318 982" fill="none" xmlns="http://www.w3.org/2000/svg">
<g clip-path="url(#clip0_561_4448)">
<rect width="318" height="982" fill="url(#paint0_linear_561_4448)"/>
<g opacity="0.5">
<path d="M-24.7237 -35H94.1579L231 667H-159L-24.7237 -35Z" fill="url(#paint1_linear_561_4448)"/>
<path d="M-82.7237 -35H36.1579L173 667H-217L-82.7237 -35Z" fill="url(#paint2_linear_561_4448)"/>
<path d="M185.276 -35H304.158L441 667H51L185.276 -35Z" fill="url(#paint3_linear_561_4448)"/>
<path d="M257.276 -35H376.158L513 667H123L257.276 -35Z" fill="url(#paint4_linear_561_4448)"/>
</g>
<g clip-path="url(#clip1_561_4448)">
<path fill-rule="evenodd" clip-rule="evenodd" d="M74.2011 604.319C92.6266 567.733 78.0099 522.987 41.346 504.521C4.65349 486.041 -40.1236 500.561 -58.5346 537.118C-59.2947 538.628 -61.1344 539.235 -62.6437 538.475C-64.1529 537.715 -64.7602 535.875 -64.0001 534.366C-44.0481 494.749 4.42909 479.076 44.0987 499.056C83.7969 519.05 99.6043 567.483 79.6666 607.071C78.9065 608.581 77.0668 609.188 75.5576 608.428C74.0483 607.668 73.441 605.828 74.2011 604.319Z" fill="#E7EDEF"/>
<path fill-rule="evenodd" clip-rule="evenodd" d="M27.7274 534.604C6.70224 523.896 -19.104 532.381 -29.7973 553.378C-30.5642 554.884 -32.4066 555.483 -33.9124 554.716C-35.4182 553.95 -36.0173 552.107 -35.2504 550.601C-23.033 526.611 6.44881 516.9 30.5045 529.151C54.5306 541.386 64.3165 570.844 52.0841 594.864C51.3172 596.37 49.4748 596.969 47.969 596.202C46.4631 595.435 45.8641 593.593 46.631 592.087C57.3092 571.119 48.7823 545.326 27.7274 534.604Z" fill="#E7EDEF"/>
<path d="M-8.26505 567.563C-3.9879 559.165 5.73787 555.381 13.6039 559.387C21.3026 563.307 24.222 573.301 19.8518 581.883L-8.26505 567.563Z" fill="#E7EDEF"/>
<path opacity="0.3" d="M370.288 962.016C371.032 960.777 371.775 959.538 372.519 958.174C377.724 943.921 375.865 935.121 373.51 929.792C364.216 908.97 338.812 897.815 282.923 888.767C278.833 888.148 253.305 880.091 243.267 855.675C236.699 839.81 240.417 823.946 243.02 814.403C251.942 780.691 271.894 777.84 282.551 750.077C291.349 727.148 290.978 694.551 273.752 670.259C252.19 639.769 211.295 632.333 181.182 638.406C151.688 644.355 131.365 664.31 121.203 676.456C115.379 663.442 105.341 644.851 88.24 626.756C46.7259 582.509 -16.8465 561.563 -74.5945 569.495C-139.158 578.419 -179.185 621.054 -199.261 642.496C-311.907 762.843 -283.404 947.391 -277.332 982.343H540.31C497.433 976.27 430.143 969.453 370.288 962.016Z" fill="#093646"/>
<path fill-rule="evenodd" clip-rule="evenodd" d="M224.163 845.9C224.163 850.183 227.636 853.655 231.921 853.655C236.206 853.655 239.68 850.183 239.68 845.9C239.68 841.617 236.206 838.145 231.921 838.145C227.636 838.145 224.163 841.617 224.163 845.9ZM226.749 845.9C226.749 843.044 229.065 840.73 231.921 840.73V840.735C234.776 840.735 237.091 843.046 237.093 845.9C237.093 848.755 234.778 851.07 231.921 851.07C229.065 851.07 226.749 848.755 226.749 845.9Z" fill="white"/>
<path fill-rule="evenodd" clip-rule="evenodd" d="M17.3992 852.363C17.3992 856.646 20.8728 860.118 25.1576 860.118C27.2153 860.118 29.1887 859.301 30.6437 857.846C32.0987 856.392 32.9161 854.419 32.9161 852.363C32.9161 848.079 29.4425 844.607 25.1576 844.607C20.8728 844.607 17.3992 848.079 17.3992 852.363ZM19.9852 852.362C19.9852 849.507 22.3009 847.192 25.1575 847.192C28.0141 847.192 30.3298 849.507 30.3298 852.362C30.3298 855.218 28.0141 857.533 25.1575 857.533C22.3009 857.533 19.9852 855.218 19.9852 852.362Z" fill="white"/>
<path fill-rule="evenodd" clip-rule="evenodd" d="M296.503 637.389C296.503 641.672 299.977 645.144 304.261 645.144C308.546 645.144 312.02 641.672 312.02 637.389C312.02 633.106 308.546 629.634 304.261 629.634C299.977 629.634 296.503 633.106 296.503 637.389ZM299.089 637.389C299.089 634.533 301.405 632.219 304.261 632.219C307.118 632.219 309.433 634.533 309.433 637.389C309.433 640.244 307.118 642.559 304.261 642.559C301.405 642.559 299.089 640.244 299.089 637.389Z" fill="white"/>
<path d="M210.315 579.08C209.893 579.078 209.515 578.821 209.358 578.429C209.234 578.113 206.344 570.746 209.265 566.213C210.594 564.145 212.854 563.023 215.988 562.873C227.282 562.33 228.916 561.943 232.324 556.52C233.65 554.289 235.949 552.814 238.53 552.539C242.915 552.053 248.226 554.607 253.092 559.508C253.353 559.77 253.453 560.151 253.356 560.508C253.259 560.864 252.98 561.142 252.622 561.237C252.265 561.331 251.884 561.228 251.623 560.965C247.269 556.566 242.455 554.188 238.757 554.596C236.796 554.789 235.047 555.912 234.057 557.615C230.033 564.031 227.241 564.403 216.071 564.936C213.609 565.055 211.934 565.835 210.982 567.329C208.64 570.948 211.23 577.596 211.256 577.669C211.465 578.198 211.206 578.797 210.677 579.008C210.562 579.054 210.439 579.079 210.315 579.08Z" fill="white"/>
<path d="M201.607 563.354C201.07 563.356 200.621 562.947 200.572 562.413C200.546 562.16 200.086 556.075 207.471 550.781C214.855 545.487 224.231 550.497 224.624 550.714C225.124 550.991 225.304 551.62 225.027 552.12C224.75 552.62 224.121 552.8 223.621 552.523C223.538 552.477 215.036 547.902 208.676 552.461C202.315 557.021 202.625 562.175 202.63 562.227C202.656 562.5 202.572 562.773 202.397 562.985C202.221 563.196 201.968 563.329 201.694 563.354H201.607Z" fill="white"/>
<path d="M195.898 557.616C195.58 557.617 195.279 557.472 195.081 557.223C194.962 557.063 192.123 553.33 194.657 546.883C197.191 540.437 205.238 539.775 205.579 539.754C206.15 539.714 206.646 540.145 206.686 540.716C206.726 541.287 206.295 541.782 205.724 541.822C205.61 541.822 198.644 542.401 196.581 547.649C194.476 552.989 196.689 555.92 196.71 555.92C196.88 556.136 196.956 556.41 196.923 556.683C196.891 556.955 196.75 557.204 196.534 557.373C196.356 557.523 196.132 557.609 195.898 557.616Z" fill="white"/>
<path fill-rule="evenodd" clip-rule="evenodd" d="M-169.971 908.674C-159.194 912.127 -147.626 913.844 -135.081 913.844C-122.949 913.844 -109.912 912.256 -95.758 909.051L-93.1724 908.462L-93.0304 908.43C-86.1764 906.877 -78.75 905.195 -71.3236 903.07C-68.8104 904.145 -66.3747 905.04 -64.2183 905.758C-52.133 909.827 -37.974 911.641 -20.9397 911.378C-0.140808 911.057 22.4216 906.735 48.0453 898.164C80.1849 887.385 112.64 872.315 147.257 852.154C172.405 837.482 196.808 820.629 220.405 804.329C225.031 801.127 229.658 797.937 234.284 794.76C234.616 794.563 234.81 794.198 234.788 793.813C234.766 793.428 234.532 793.087 234.181 792.928C233.829 792.77 233.419 792.82 233.116 793.059C228.482 796.243 223.854 799.433 219.231 802.628C195.665 818.907 171.293 835.74 146.212 850.365C111.719 870.48 79.3937 885.467 47.3886 896.179C21.951 904.683 -0.389008 908.969 -20.9707 909.284C-37.7671 909.548 -51.7038 907.743 -63.5615 903.773C-64.9888 903.297 -66.5402 902.744 -68.1536 902.108C-55.1116 898.128 -42.3024 892.663 -32.813 884.014C-29.2448 880.763 -27.3108 877.035 -27.2229 873.236C-27.1349 869.596 -28.7742 865.988 -31.9494 862.803C-40.5441 854.216 -58.8764 854.475 -71.7684 859.071C-83.864 863.393 -91.321 871.059 -92.226 880.106C-93.2189 890.084 -83.7503 897.166 -74.2661 901.7C-80.9061 903.52 -87.5046 905.014 -93.6378 906.399L-96.2234 906.994C-124.588 913.425 -148.5 913.342 -169.33 906.704C-187.393 900.945 -202.457 889.732 -212.883 874.275C-229.384 849.832 -235.776 814.637 -212.883 791.12C-192.446 770.116 -161.015 765.127 -144.104 764.021C-139.374 763.709 -134.631 763.645 -129.894 763.829C-129.524 763.843 -129.175 763.659 -128.979 763.346C-128.782 763.033 -128.767 762.639 -128.94 762.312C-129.113 761.985 -129.447 761.775 -129.816 761.762C-134.624 761.577 -139.438 761.642 -144.239 761.958C-161.449 763.085 -193.444 768.182 -214.367 789.678C-238.077 814.027 -231.572 850.293 -214.61 875.433C-203.916 891.278 -188.479 902.77 -169.971 908.674ZM-71.0548 861.045C-65.4198 859.049 -59.4869 858.023 -53.5086 858.011V858.006C-45.0691 858.006 -37.5138 860.172 -33.4233 864.282C-30.6412 867.053 -29.2139 870.139 -29.2863 873.204C-29.3587 876.436 -31.06 879.646 -34.199 882.51C-43.9883 891.433 -57.5422 896.908 -71.1893 900.862C-80.751 896.685 -91.1039 889.897 -90.1524 880.339C-89.3302 872.114 -82.3696 865.083 -71.0548 861.045Z" fill="white"/>
<path d="M105.538 933.262C119.293 931.279 123.507 924.09 138.625 924.586C150.893 924.958 153.124 929.916 167.747 933.262C175.678 935.121 199.967 940.698 213.351 929.916C229.089 917.026 229.46 890.254 217.936 871.043C203.932 847.99 183.113 837.208 176.05 815.394C173.076 806.222 174.935 802.752 174.315 789.366C172.208 742.517 150.026 691.081 133.172 691.825C126.976 692.073 122.763 699.261 116.939 709.3C108.884 722.934 108.884 732.725 104.051 759.496C100.085 780.938 98.2264 791.721 93.7652 803.124C87.3212 819.856 82.4882 822.583 73.3179 839.562C59.5625 864.723 44.1961 892.857 54.7295 912.44C63.1563 928.056 87.6929 935.741 105.538 933.262Z" fill="#0087C1"/>
<path d="M154.859 982.219C154.859 982.219 133.792 935.245 137.881 890.006C141.971 844.644 146.804 853.816 140.36 813.659C133.916 773.502 137.386 743.508 137.386 743.508C137.386 743.508 123.135 798.414 132.181 830.143C141.227 861.872 118.425 874.638 120.036 923.966C121.647 973.295 119.913 982.219 119.913 982.219H154.859Z" fill="#E8F6FE"/>
<path d="M139.493 875.877L184.848 863.235L137.882 890.378L139.493 875.877Z" fill="#E8F6FE"/>
<path d="M135.155 856.418L101.076 836.092L135.155 842.537V856.418Z" fill="#E8F6FE"/>
<path d="M243.34 913.927C275.644 913.927 301.831 887.736 301.831 855.427C301.831 823.118 275.644 796.927 243.34 796.927C211.036 796.927 184.848 823.118 184.848 855.427C184.848 887.736 211.036 913.927 243.34 913.927Z" fill="#072A36"/>
<path d="M244.827 872.655L290.431 860.013L243.34 887.156L244.827 872.655Z" fill="#E8F6FE"/>
<path d="M243.34 855.427L209.137 835.101L243.34 848.115V855.427Z" fill="#E8F6FE"/>
<path d="M244.455 822.955L233.55 982.219H253.13L244.455 822.955Z" fill="#E8F6FE"/>
</g>
</g>
<defs>
<linearGradient id="paint0_linear_561_4448" x1="159" y1="0" x2="159" y2="982" gradientUnits="userSpaceOnUse">
<stop stop-color="#18A4F5"/>
<stop offset="0.804103" stop-color="#0A4567"/>
</linearGradient>
<linearGradient id="paint1_linear_561_4448" x1="318" y1="-35" x2="318" y2="667" gradientUnits="userSpaceOnUse">
<stop offset="0.223958" stop-color="#0D5A87" stop-opacity="0.09"/>
<stop offset="1" stop-color="#0D5A87"/>
</linearGradient>
<linearGradient id="paint2_linear_561_4448" x1="318" y1="-35" x2="318" y2="667" gradientUnits="userSpaceOnUse">
<stop offset="0.223958" stop-color="#0D5A87" stop-opacity="0.09"/>
<stop offset="1" stop-color="#0D5A87"/>
</linearGradient>
<linearGradient id="paint3_linear_561_4448" x1="318" y1="-35" x2="318" y2="667" gradientUnits="userSpaceOnUse">
<stop offset="0.223958" stop-color="#0D5A87" stop-opacity="0.09"/>
<stop offset="1" stop-color="#0D5A87"/>
</linearGradient>
<linearGradient id="paint4_linear_561_4448" x1="318" y1="-35" x2="318" y2="667" gradientUnits="userSpaceOnUse">
<stop offset="0.223958" stop-color="#0D5A87" stop-opacity="0.09"/>
<stop offset="1" stop-color="#0D5A87"/>
</linearGradient>
<clipPath id="clip0_561_4448">
<rect width="318" height="982" fill="white"/>
</clipPath>
<clipPath id="clip1_561_4448">
<rect width="318" height="528" fill="white" transform="translate(0 454)"/>
</clipPath>
</defs>
</svg>
