<svg width="24" height="24" viewBox="0 0 24 24" fill="none" xmlns="http://www.w3.org/2000/svg">
<path d="M20.5875 11.3324L4.08754 3.08238C3.95821 3.01771 3.81295 2.99179 3.66924 3.00776C3.52554 3.02373 3.38951 3.0809 3.27754 3.17238C3.1706 3.262 3.09079 3.37967 3.04707 3.51217C3.00334 3.64466 2.99745 3.78672 3.03004 3.92238L5.25004 11.9999L3.00004 20.0549C2.96946 20.1682 2.96589 20.2871 2.98961 20.402C3.01334 20.5169 3.06371 20.6247 3.13665 20.7166C3.2096 20.8085 3.3031 20.882 3.40964 20.9312C3.51617 20.9804 3.63276 21.0039 3.75004 20.9999C3.86744 20.9992 3.98304 20.9709 4.08754 20.9174L20.5875 12.6674C20.7104 12.6044 20.8135 12.5088 20.8855 12.391C20.9575 12.2733 20.9956 12.1379 20.9956 11.9999C20.9956 11.8618 20.9575 11.7265 20.8855 11.6087C20.8135 11.4909 20.7104 11.3953 20.5875 11.3324ZM4.91254 18.8324L6.57004 12.7499H13.5V11.2499H6.57004L4.91254 5.16738L18.57 11.9999L4.91254 18.8324Z" fill="white"/>
</svg>
