<svg xmlns="http://www.w3.org/2000/svg" width="32" height="32" viewBox="0 0 32 32" fill="none"><path d="m10.315 18.134 3.2 3.2a1.21 1.21 0 0 0 1.722 0l6.448-6.448" stroke="#00A7F6" stroke-width="2.4" stroke-linecap="round" stroke-linejoin="round"/><path d="M30.8 12.613V24.93a4.933 4.933 0 0 1-4.933 4.933H6.133A4.933 4.933 0 0 1 1.2 24.928V7.07a4.933 4.933 0 0 1 4.933-4.933h4.934a4.93 4.93 0 0 1 4.112 2.203l1.397 2.122a2.8 2.8 0 0 0 2.318 1.232h6.973a4.934 4.934 0 0 1 4.933 4.918" stroke="#00A7F6" stroke-width="2.4" stroke-linecap="round" stroke-linejoin="round"/></svg>