<svg width="32" height="32" viewBox="0 0 32 32" fill="none" xmlns="http://www.w3.org/2000/svg"><path d="M16 13.333a5.333 5.333 0 1 0 0-10.667 5.333 5.333 0 0 0 0 10.667Zm8 13.334A5.333 5.333 0 1 0 24 16a5.333 5.333 0 0 0 0 10.667Z" stroke="#fff" stroke-width="1.667"/><path d="m22.223 21.333 1.111 1.333 2.444-2.519" stroke="#fff" stroke-width="1.667" stroke-linecap="round" stroke-linejoin="round"/><path d="M20 17.769a18 18 0 0 0-4-.436c-5.891 0-10.667 2.687-10.667 6s0 6 10.667 6c7.583 0 9.775-1.357 10.409-3.333" stroke="#fff" stroke-width="1.667"/></svg>
