<svg width="32" height="32" viewBox="0 0 32 32" fill="none" xmlns="http://www.w3.org/2000/svg"><path fill-rule="evenodd" clip-rule="evenodd" d="M16 1.667a6.333 6.333 0 1 0 0 12.667 6.333 6.333 0 0 0 0-12.667M11.667 8a4.333 4.333 0 1 1 8.667 0 4.333 4.333 0 0 1-8.667 0" fill="#fff"/><path d="M22.929 18.848a1 1 0 0 0-1.413 1.415l1.069 1.071-1.069 1.071a1 1 0 0 0 1.413 1.413L24 22.749l1.071 1.071a1 1 0 0 0 1.413-1.413l-1.067-1.072 1.069-1.071a1 1 0 0 0-1.413-1.413L24 19.92z" fill="#fff"/><path fill-rule="evenodd" clip-rule="evenodd" d="M16 16.333c1.293 0 2.536.123 3.7.351a6.333 6.333 0 1 1 7.461 10.139c-.499 1.08-1.429 1.937-3 2.523-1.747.649-4.337.988-8.16.988-2.703 0-4.773-.169-6.367-.492-1.587-.32-2.76-.807-3.6-1.489-1.704-1.389-1.703-3.333-1.701-4.883v-.137c0-2.179 1.56-3.947 3.635-5.115 2.107-1.184 4.947-1.885 8.032-1.885m-9.667 7c0-1.135.829-2.367 2.615-3.371 1.755-.987 4.245-1.629 7.053-1.629.807 0 1.591.053 2.34.153A6.333 6.333 0 0 0 23.08 27.6c-1.427.449-3.644.733-7.08.733-2.633 0-4.56-.167-5.969-.452-1.413-.285-2.24-.679-2.733-1.08-.912-.743-.964-1.724-.964-3.468M24 17a4.333 4.333 0 1 0 0 8.667A4.333 4.333 0 0 0 24 17" fill="#fff"/></svg>
