<svg width="32" height="32" viewBox="0 0 32 32" fill="none" xmlns="http://www.w3.org/2000/svg"><path fill-rule="evenodd" clip-rule="evenodd" d="M16 1.667a6.333 6.333 0 1 0 0 12.667 6.333 6.333 0 0 0 0-12.667M11.667 8a4.333 4.333 0 1 1 8.667 0 4.333 4.333 0 0 1-8.667 0" fill="#fff"/><path d="M24 4.333a1 1 0 1 0 0 2c1.836 0 3 1.208 3 2.333S25.836 11 24 11a1 1 0 1 0 0 2c2.583 0 5-1.777 5-4.333s-2.417-4.334-5-4.334m-15 1a1 1 0 0 0-1-1c-2.583 0-5 1.777-5 4.333S5.417 13 8 13a1 1 0 0 0 0-2c-1.835 0-3-1.208-3-2.333s1.165-2.334 3-2.334a1 1 0 0 0 1-1" fill="#fff"/><path fill-rule="evenodd" clip-rule="evenodd" d="M16 16.333c-2.379 0-4.579.64-6.212 1.729C8.161 19.147 7 20.755 7 22.666s1.161 3.52 2.788 4.604c1.633 1.088 3.833 1.729 6.212 1.729s4.579-.64 6.212-1.729C23.839 26.185 25 24.577 25 22.666s-1.163-3.52-2.788-4.604c-1.633-1.088-3.833-1.729-6.212-1.729m-7 6.334c0-1.035.629-2.093 1.897-2.939 1.263-.841 3.064-1.395 5.103-1.395 2.04 0 3.84.553 5.103 1.395 1.268.845 1.897 1.904 1.897 2.939s-.629 2.093-1.897 2.939c-1.263.841-3.064 1.395-5.103 1.395-2.04 0-3.84-.553-5.103-1.395C9.629 24.76 9 23.701 9 22.667" fill="#fff"/><path d="M25.689 18.453a1 1 0 0 1 1.192-.764c1.281.281 2.437.789 3.296 1.492.857.701 1.489 1.667 1.489 2.819 0 1.153-.632 2.117-1.489 2.819-.859.703-2.013 1.211-3.296 1.492a1 1 0 1 1-.429-1.955c1.057-.231 1.901-.629 2.459-1.085s.756-.903.756-1.271-.199-.813-.756-1.271-1.401-.853-2.459-1.085a1 1 0 0 1-.763-1.192M5.12 17.689a1 1 0 0 1 .427 1.955c-1.056.231-1.9.629-2.457 1.085s-.756.903-.756 1.271.199.813.756 1.271 1.401.853 2.459 1.085a1 1 0 0 1-.429 1.955c-1.283-.281-2.437-.789-3.296-1.492C.965 24.117.333 23.152.333 22c0-1.153.632-2.117 1.489-2.819.859-.703 2.015-1.211 3.297-1.492" fill="#fff"/></svg>
