<svg width="32" height="32" viewBox="0 0 32 32" fill="none" xmlns="http://www.w3.org/2000/svg"><path d="m18.309 29.027.723-1.221-1.72-1.019-.724 1.221zm-5.341-1.221.723 1.221 1.72-1.019-.721-1.221zm3.62.203a.693.693 0 0 1-1.176 0l-1.721 1.019c1.031 1.743 3.587 1.743 4.619 0zM14 3.667h4v-2h-4zM28.333 14v1.333h2V14zM3.666 15.333V14h-2v1.333zm-2 0c0 1.54 0 2.744.067 3.716.067.98.204 1.796.517 2.551l1.848-.765c-.196-.469-.311-1.043-.371-1.921-.061-.888-.061-2.013-.061-3.58zm8.737 8.989c-1.675-.029-2.552-.136-3.24-.421L6.4 25.749c1.073.445 2.295.545 3.969.575zM2.251 21.6A7.67 7.67 0 0 0 6.4 25.749l.764-1.848a5.67 5.67 0 0 1-3.065-3.067zm26.083-6.267c0 1.567 0 2.692-.061 3.58-.06.879-.175 1.452-.369 1.921l1.847.765c.313-.755.451-1.571.519-2.551.067-.972.065-2.176.065-3.716zm-6.703 10.988c1.675-.028 2.896-.127 3.969-.572l-.765-1.848c-.687.285-1.564.392-3.237.421zm6.272-5.487a5.67 5.67 0 0 1-3.067 3.067l.764 1.848a7.67 7.67 0 0 0 4.149-4.149zM18 3.667c2.201 0 3.783 0 5.016.119 1.219.116 1.993.337 2.612.716l1.044-1.705c-.985-.603-2.103-.872-3.467-1.003-1.349-.128-3.043-.127-5.205-.127zM30.333 14c0-2.163 0-3.855-.128-5.205-.129-1.364-.399-2.483-1.001-3.467l-1.707 1.044c.38.619.601 1.393.717 2.613.117 1.232.119 2.813.119 5.015zm-4.707-9.499a5.7 5.7 0 0 1 1.872 1.871l1.705-1.044a7.7 7.7 0 0 0-2.532-2.532zM14 1.667c-2.163 0-3.855 0-5.205.127-1.364.131-2.483.4-3.467 1.003l1.044 1.707c.619-.38 1.393-.601 2.613-.717 1.232-.117 2.813-.119 5.015-.119zM3.667 14c0-2.201 0-3.783.119-5.016.116-1.219.337-1.993.716-2.612L2.797 5.329c-.603.984-.872 2.101-1.003 3.465-.127 1.353-.127 3.043-.127 5.206zM5.328 2.796a7.7 7.7 0 0 0-2.532 2.533l1.707 1.043a5.7 5.7 0 0 1 1.869-1.871zm9.36 23.991c-.269-.457-.507-.861-.739-1.179a2.9 2.9 0 0 0-.909-.86l-1.005 1.729c.063.037.149.104.299.309.161.221.344.528.635 1.019zm-4.319-.465c.587.011.956.019 1.239.049.264.029.367.072.427.107l1.005-1.729a3 3 0 0 0-1.212-.365c-.397-.044-.875-.051-1.424-.06zm8.663 1.484c.291-.489.473-.797.635-1.019.149-.205.236-.272.299-.309l-1.005-1.729c-.387.227-.667.527-.909.86-.231.317-.469.72-.74 1.179zm2.565-3.483c-.549.009-1.028.016-1.425.06-.415.047-.821.139-1.212.365l1.005 1.729c.06-.035.163-.077.427-.107.283-.031.653-.04 1.24-.049z" fill="#fff"/><path d="M10.667 12h10.667m-10.667 4.667H18" stroke="#fff" stroke-width="2" stroke-linecap="round"/></svg>