<svg width="32" height="32" viewBox="0 0 32 32" fill="none" xmlns="http://www.w3.org/2000/svg"><path d="M21.333 13.333a2.667 2.667 0 1 0 0-5.333 2.667 2.667 0 0 0 0 5.333Z" stroke="#fff" stroke-width="2"/><path d="m2.667 16.667 2.336-2.044a3.067 3.067 0 0 1 4.187.14l5.72 5.72a2.67 2.67 0 0 0 3.419.296l.399-.28a4 4 0 0 1 4.975.3l4.299 3.867" stroke="#fff" stroke-width="2" stroke-linecap="round"/><path d="M29.333 16c0 6.285 0 9.428-1.953 11.38-1.951 1.953-5.095 1.953-11.38 1.953s-9.428 0-11.381-1.953C2.667 25.429 2.667 22.285 2.667 16s0-9.428 1.952-11.381C6.573 2.667 9.715 2.667 16 2.667s9.428 0 11.38 1.952c1.299 1.299 1.733 3.124 1.88 6.048" stroke="#fff" stroke-width="2" stroke-linecap="round"/></svg>
