<svg width="32" height="32" viewBox="0 0 32 32" fill="none" xmlns="http://www.w3.org/2000/svg"><path d="M21.6 7.833c0 0.767 -0.145 1.524 -0.427 2.232a5.867 5.867 0 0 1 -1.213 1.893c-0.52 0.541 -1.137 0.971 -1.817 1.264a5.413 5.413 0 0 1 -4.285 0 5.6 5.6 0 0 1 -1.817 -1.264c-0.52 -0.543 -0.933 -1.185 -1.213 -1.893s-0.427 -1.467 -0.427 -2.232a5.96 5.96 0 0 1 1.64 -4.125A5.493 5.493 0 0 1 16 2c1.485 0 2.909 0.613 3.96 1.708a5.96 5.96 0 0 1 1.64 4.125m4 15c0 3.221 -4.297 5.833 -9.6 5.833s-9.6 -2.612 -9.6 -5.833S10.697 16 16 16s9.6 3.612 9.6 6.833M7.837 4.584q0.427 0 0.829 0.083c-0.673 1.247 -1.336 2.569 -1.333 4 0 1.447 1.02 3.063 1.643 4.247q-0.379 0.076 -0.781 0.076C5.933 12.989 3.333 10.94 3.333 8.667s2.243 -4.083 4.504 -4.083M5.515 26.356A7.147 7.147 0 0 1 4 22c0 -1.573 0.653 -3.283 1.515 -4.393C2.467 17.853 0 19.896 0 22c0 2.125 2.427 4.136 5.515 4.356M24.667 8.667c0 1.447 -0.711 2.815 -1.333 4q0.376 0.075 0.781 0.075c2.261 0 4.552 -1.801 4.552 -4.075s-2.243 -4.083 -4.504 -4.083q-0.427 0 -0.829 0.083c0.651 1.207 1.333 2.517 1.333 4m1.333 17.333c3.088 -0.22 6 -1.875 6 -4 0 -2.105 -2.467 -4.087 -5.515 -4.333 0.864 1.111 1.515 2.76 1.515 4.333 0 1.624 -1.093 2.868 -2 4" fill="white"/><path fill-rule="evenodd" clip-rule="evenodd" d="M16 1.667a6.333 6.333 0 1 0 0 12.667 6.333 6.333 0 0 0 0 -12.667M11.667 8a4.333 4.333 0 1 1 8.667 0 4.333 4.333 0 0 1 -8.667 0" fill="white"/></svg>
