<svg width="32" height="32" viewBox="0 0 32 32" fill="none" xmlns="http://www.w3.org/2000/svg"><path d="M18.667 28.333h-5.333v2h5.333zm-15-9.666v-5.333h-2v5.333zm24.667-.583v.583h2v-.583zM19.855 6.148l5.279 4.751 1.337-1.488-5.277-4.751zm10.479 11.936c0-2.252.02-3.679-.547-4.953l-1.828.815c.355.797.375 1.711.375 4.139zm-5.2-7.185c1.804 1.624 2.471 2.251 2.825 3.047l1.828-.813c-.568-1.277-1.641-2.213-3.316-3.72zM13.373 3.667c2.109 0 2.905.016 3.613.288l.717-1.867c-1.136-.437-2.373-.421-4.331-.421zm7.82.995c-1.448-1.303-2.353-2.139-3.489-2.573l-.716 1.867c.709.272 1.307.789 2.867 2.193zm-7.86 23.671c-2.543 0-4.348-.003-5.72-.187-1.34-.18-2.113-.519-2.677-1.083l-1.413 1.413c.997 1 2.263 1.441 3.825 1.653 1.533.205 3.5.203 5.985.203zM1.667 18.667c0 2.485-.003 4.451.204 5.987.211 1.561.653 2.827 1.651 3.827l1.413-1.413c-.563-.567-.901-1.34-1.081-2.68-.184-1.371-.187-3.177-.187-5.72zm17 11.666c2.485 0 4.451.003 5.985-.204 1.563-.211 2.828-.653 3.827-1.651l-1.413-1.413c-.565.563-1.339.901-2.68 1.081-1.369.184-3.176.187-5.719.187zm9.666-11.666c0 2.543-.003 4.349-.187 5.72-.18 1.34-.519 2.113-1.083 2.677l1.413 1.413c1-.997 1.441-2.263 1.652-3.825.207-1.533.204-3.5.204-5.985zM3.666 13.334c0-2.543.003-4.347.187-5.72.18-1.34.519-2.113 1.083-2.677L3.523 3.524c-1 .997-1.441 2.263-1.652 3.827-.207 1.53-.204 3.496-.204 5.982zm9.707-11.667c-2.5 0-4.475-.003-6.015.204-1.569.211-2.839.653-3.837 1.651l1.413 1.413c.565-.563 1.34-.901 2.689-1.08 1.377-.185 3.193-.187 5.749-.187z" fill="#fff"/><path d="M8 19.333h10.667M8 24h7.333" stroke="#fff" stroke-width="2" stroke-linecap="round"/><path d="M17.333 3.333v3.334c0 3.143 0 4.715.976 5.691s2.548.975 5.691.975h5.333" stroke="#fff" stroke-width="2"/></svg>
