<svg width="32" height="32" viewBox="0 0 32 32" fill="none" xmlns="http://www.w3.org/2000/svg"><path d="m24.848 20.893 2.288 -6.867c2 -5.997 3 -8.996 1.416 -10.579s-4.581 -0.584 -10.58 1.416L11.107 7.152C6.267 8.765 3.847 9.573 3.16 10.756a3.627 3.627 0 0 0 0 3.64c0.687 1.184 3.107 1.991 7.947 3.605 0.779 0.259 1.167 0.387 1.492 0.605 0.315 0.211 0.585 0.48 0.796 0.796 0.217 0.325 0.347 0.713 0.605 1.491 1.613 4.84 2.421 7.261 3.604 7.949a3.627 3.627 0 0 0 3.641 0c1.183 -0.688 1.988 -3.108 3.603 -7.949Z" stroke="white" stroke-width="2"/><path d="M21.616 11.797a1 1 0 0 0 -1.407 -1.421zm-7.4 7.317 7.4 -7.317 -1.407 -1.421 -7.4 7.317z" fill="white"/></svg>
