<svg width="32" height="32" viewBox="0 0 32 32" fill="none" xmlns="http://www.w3.org/2000/svg"><path fill-rule="evenodd" clip-rule="evenodd" d="M16 1.667a6.333 6.333 0 1 0 0 12.667 6.333 6.333 0 0 0 0-12.667M11.667 8a4.333 4.333 0 1 1 8.667 0 4.333 4.333 0 0 1-8.667 0" fill="#fff"/><path d="M11.667 8a4.333 4.333 0 1 1 8.667 0 4.333 4.333 0 0 1-8.667 0" fill="#fff"/><path fill-rule="evenodd" clip-rule="evenodd" d="M19.188 16.521a6.333 6.333 0 1 1 8.957 8.957 6.333 6.333 0 0 1-8.957-8.957m7.099 3.725a.833.833 0 1 0-1.196-1.16l-1.8 1.853-.517-.621a.833.833 0 0 0-1.28 1.067l1.111 1.333a.833.833 0 0 0 1.239.047z" fill="#fff"/><path d="M8.948 19.963c-1.785 1.004-2.613 2.236-2.613 3.371 0 1.744.051 2.725.963 3.468.493.401 1.32.795 2.733 1.08 1.409.285 3.336.452 5.969.452.869 0 2.613-.299 3.333-.333-2.667-1.333-5.333-5.333-3.219-9.731-2.808 0-5.412.707-7.167 1.693" fill="#fff"/><path fill-rule="evenodd" clip-rule="evenodd" d="M7.968 18.219c2.107-1.184 4.947-1.885 8.032-1.885l.115 1.936c-2.808 0-5.412.707-7.167 1.693-1.785 1.004-2.613 2.236-2.613 3.371 0 1.744.051 2.725.963 3.468.493.401 1.32.795 2.733 1.08 1.409.285 3.336.452 5.969.452.869 0 2.613-.299 3.333-.333 1.333.667 2.667 1.333 4.827 1.345-1.747.649-4.336.988-8.16.988-2.701 0-4.773-.169-6.365-.492-1.587-.32-2.76-.807-3.6-1.489-1.704-1.389-1.703-3.333-1.701-4.883v-.137c0-2.179 1.56-3.947 3.635-5.115" fill="#fff"/><path d="m16 16.333.115 1.936c.488-.869.708-1.243 1.485-1.872a20 20 0 0 0-1.6-.064" fill="#fff"/></svg>
