<svg width="32" height="32" viewBox="0 0 32 32" fill="none" xmlns="http://www.w3.org/2000/svg"><path d="M4 29.333h24" stroke="white" stroke-width="2" stroke-linecap="round" stroke-linejoin="round"/><path d="M4 14.667c0 -1.257 0 -1.885 0.391 -2.276S5.409 12 6.667 12s1.885 0 2.276 0.391S9.333 13.409 9.333 14.667v8c0 1.257 0 1.885 -0.391 2.276S7.924 25.333 6.667 25.333s-1.885 0 -2.276 -0.391S4 23.924 4 22.667zm9.333 -5.333c0 -1.257 0 -1.885 0.391 -2.276S14.743 6.667 16 6.667s1.885 0 2.276 0.391S18.667 8.076 18.667 9.333v13.333c0 1.257 0 1.885 -0.391 2.276S17.257 25.333 16 25.333s-1.885 0 -2.276 -0.391S13.333 23.924 13.333 22.667zm9.333 -4c0 -1.257 0 -1.885 0.391 -2.276S24.076 2.667 25.333 2.667s1.885 0 2.276 0.391S28 4.076 28 5.333v17.333c0 1.257 0 1.885 -0.391 2.276S26.591 25.333 25.333 25.333s-1.885 0 -2.276 -0.391S22.667 23.924 22.667 22.667z" stroke="white" stroke-width="2"/></svg>
