<svg width="32" height="32" viewBox="0 0 32 32" fill="none" xmlns="http://www.w3.org/2000/svg"><path fill-rule="evenodd" clip-rule="evenodd" d="M12 1.667a6.333 6.333 0 1 0 0 12.667 6.333 6.333 0 0 0 0-12.667M7.667 8a4.333 4.333 0 1 1 8.667 0 4.333 4.333 0 0 1-8.667 0" fill="#fff"/><path d="M20 3a1 1 0 1 0 0 2 3 3 0 0 1 0 6 1 1 0 1 0 0 2 5 5 0 0 0 0-10" fill="#fff"/><path fill-rule="evenodd" clip-rule="evenodd" d="M4.904 18.027C6.771 16.96 9.281 16.334 12 16.334s5.229.627 7.096 1.693c1.837 1.051 3.237 2.653 3.237 4.64s-1.4 3.589-3.237 4.64C17.229 28.374 14.719 29 12 29s-5.229-.627-7.096-1.693c-1.837-1.051-3.237-2.654-3.237-4.64s1.4-3.589 3.237-4.64m.992 1.737c-1.54.88-2.229 1.943-2.229 2.903s.689 2.023 2.229 2.903C7.408 26.433 9.564 27 12 27s4.592-.567 6.104-1.431c1.54-.88 2.229-1.944 2.229-2.903s-.689-2.023-2.229-2.903c-1.512-.863-3.668-1.43-6.104-1.43s-4.592.567-6.104 1.431" fill="#fff"/><path d="M24.213 17.689a1 1 0 0 0-.427 1.955c1.056.231 1.9.629 2.457 1.085s.756.903.756 1.271c0 .333-.16.727-.604 1.139-.447.415-1.133.797-2.017 1.064a1.001 1.001 0 0 0 .576 1.916c1.097-.331 2.077-.841 2.803-1.515C28.485 23.928 29 23.039 29 22c0-1.153-.632-2.117-1.489-2.819-.859-.703-2.015-1.211-3.297-1.492" fill="#fff"/></svg>
