<svg width="32" height="32" viewBox="0 0 32 32" fill="none" xmlns="http://www.w3.org/2000/svg"><path d="M2.667 16c0 -6.285 0 -9.428 1.952 -11.381C6.573 2.667 9.715 2.667 16 2.667s9.428 0 11.38 1.952C29.333 6.573 29.333 9.715 29.333 16s0 9.428 -1.953 11.38C25.429 29.333 22.285 29.333 16 29.333s-9.428 0 -11.381 -1.953C2.667 25.429 2.667 22.285 2.667 16Z" stroke="#fff" stroke-width="2"/><path d="M2.667 17.333h4.213c1.207 0 1.811 0 2.341 0.244s0.923 0.703 1.708 1.619l0.808 0.941c0.785 0.916 1.177 1.375 1.708 1.619s1.133 0.244 2.341 0.244h0.427c1.207 0 1.811 0 2.341 -0.244s0.923 -0.703 1.708 -1.619l0.808 -0.941c0.785 -0.916 1.177 -1.375 1.708 -1.619S23.912 17.333 25.12 17.333H29.333M10.667 9.333h10.667m-8 4.667h5.333" stroke="#fff" stroke-width="2" stroke-linecap="round"/></svg>
