<svg width="32" height="32" viewBox="0 0 32 32" fill="none" xmlns="http://www.w3.org/2000/svg"><path d="M16 20a4 4 0 1 0 0-8 4 4 0 0 0 0 8Z" stroke="#fff" stroke-width="2"/><path d="M18.353 2.869c-.489-.202-1.11-.202-2.353-.202s-1.864 0-2.353.203a2.67 2.67 0 0 0-1.444 1.444c-.123.297-.172.645-.191 1.151a2.16 2.16 0 0 1-1.053 1.804 2.16 2.16 0 0 1-2.089.011c-.448-.237-.772-.368-1.093-.411a2.67 2.67 0 0 0-1.971.528c-.419.323-.731.86-1.353 1.936s-.933 1.613-1.001 2.14a2.67 2.67 0 0 0 .528 1.972c.197.256.473.471.901.74.631.396 1.036 1.071 1.036 1.815s-.405 1.419-1.036 1.813c-.428.271-.705.485-.901.741a2.67 2.67 0 0 0-.528 1.972c.069.525.38 1.064 1 2.14.623 1.076.933 1.613 1.353 1.937a2.67 2.67 0 0 0 1.972.528c.32-.043.644-.173 1.092-.411a2.16 2.16 0 0 1 2.089.011c.644.373 1.027 1.06 1.053 1.804.019.507.067.853.191 1.151a2.67 2.67 0 0 0 1.444 1.444c.49.203 1.111.203 2.354.203s1.864 0 2.353-.203a2.67 2.67 0 0 0 1.444-1.444c.123-.297.172-.644.191-1.151.027-.744.409-1.432 1.053-1.804a2.16 2.16 0 0 1 2.089-.011c.448.237.772.368 1.092.411a2.67 2.67 0 0 0 1.972-.528c.42-.323.731-.861 1.352-1.937s.933-1.613 1.001-2.14a2.67 2.67 0 0 0-.528-1.972c-.197-.256-.473-.471-.901-.74A2.16 2.16 0 0 1 26.083 16c0-.744.405-1.419 1.036-1.813.428-.271.705-.485.901-.741a2.67 2.67 0 0 0 .528-1.972c-.069-.525-.38-1.064-1-2.14-.623-1.076-.933-1.613-1.353-1.937a2.67 2.67 0 0 0-1.972-.528c-.32.043-.644.173-1.093.411a2.16 2.16 0 0 1-2.088-.011 2.16 2.16 0 0 1-1.053-1.804c-.019-.507-.067-.853-.191-1.151a2.67 2.67 0 0 0-1.444-1.444Z" stroke="#fff" stroke-width="2"/></svg>
